<svg xmlns="http://www.w3.org/2000/svg" viewBox="0 0 450 450"><defs><style>.cls-1{fill:none;}.cls-2{fill:#1bdbdb;}.cls-3{fill:#111;}</style></defs><g id="Large"><rect class="cls-1" width="450" height="450"/><path class="cls-2" d="M250.04,206.57c-.65,2.1-.43,5.24-.21,7.69.01,1.71.03,5.45-.19,8.08-.03,3.03.33,5.64.19,8.51-.17,2.61.06,4.7-.34,7.69.45,2.03.04,4.51.34,6.21a48.5381,48.5381,0,0,1-.37,5.69,20.8982,20.8982,0,0,0-5.6.14c-1.81.38-4.44.02-6.37-.12-1.59.05-4.42.04-6.77.12a28.8215,28.8215,0,0,1-6.97.1,40.0788,40.0788,0,0,1-6.17-.1c-4.14.65-5.67-.17-5.97,0,.11-1.22-.36-2.74,0-5.83.54-3.88-.1-8.7,0-13.9a136.6661,136.6661,0,0,0,0-16.59,120.6583,120.6583,0,0,1,0-13.91c.56-2.92.7-4.88.4-5.56.85.03,2.9-.31,5.57-.27,1.65-.03,3.76.22,6.04.35a37.613,37.613,0,0,0,7.1-.35c1.53.08,2.19.2,3.85.17a14.363,14.363,0,0,0,3.46.05,34.3335,34.3335,0,0,1,5.83-.22,6.9757,6.9757,0,0,1,4.33-.69c1.24-.11,2.36.42,1.64.69-1.32.34-.4,1.93,0,5.83C250.43,202.23,249.62,203.93,250.04,206.57Z"/><path class="cls-2" d="M294.32,124.59H277.5c-5.72-.04-11.8-.04-17.56,0h-17.8c-5.93.09-11.8,0-17.56,0H157.76c-2.48.04-4.36-.1-5.72,0a8.3282,8.3282,0,0,1-2.01,0,63.8267,63.8267,0,0,1,0,7.72c.09,3.89.11,7.88,0,7.72-.1.25,1.7,0,4.63,0,1.91.01,3.3-.48,5.15.05,1.79.19,4.27-.23,6.42-.05a18.9165,18.9165,0,0,0,7.24.08c2.42-.02,5.26.05,7.81-.08,2.74.05,5.25.09,7.73.03s4.9-.13,7.32-.03c4.59-.16,8.77-.02,11.57,0a27.574,27.574,0,0,1,4.63,0c.16-.11.98-1.2,2.03-2.43.95-1.14,2.03-2.31,2.03-2.44a6.5909,6.5909,0,0,1,2.44-1.9,7.4879,7.4879,0,0,1,3.05-.68,20.1009,20.1009,0,0,1,4.33,1.3,17.9693,17.9693,0,0,1,4.09,2.08,2.2943,2.2943,0,0,1,1.16.77,7.2521,7.2521,0,0,1,2.24,3.3,10.4622,10.4622,0,0,1,3.3,0c1.99-.14,5.23-.1,8.98,0,3.92.04,8.03-.02,13.24,0,4.86.06,10.47-.07,16.07,0,5.69.1,11.2-.14,17.48,0,5.67.07,11.74.13,17.49,0h41.59V124.59ZM164.93,135.54a4.619,4.619,0,0,1-3.28,1.36,5.6958,5.6958,0,0,1-3.28-1.36,4.64,4.64,0,1,1,6.56,0Zm14.08,0a4.3134,4.3134,0,0,1-3.28,1.36,3.3545,3.3545,0,0,1-3.28-1.36,4.64,4.64,0,1,1,6.56,0Zm10.79,1.36a4.64,4.64,0,1,1,4.64-4.64A4.6433,4.6433,0,0,1,189.8,136.9Z"/><path class="cls-3" d="M43.94,328.67c-.05-.01-.11-.01-.16-.02C43.75,328.67,43.8,328.68,43.94,328.67Z"/><path class="cls-3" d="M65.02,296.77a.1409.1409,0,0,1,.04.03.0351.0351,0,0,0,.01-.02A.4193.4193,0,0,0,65.02,296.77Z"/><path class="cls-3" d="M65.11,296.83c.03-.02.02-.04-.03-.04a.0375.0375,0,0,0,.01.03C65.1,296.82,65.1,296.83,65.11,296.83Z"/><path class="cls-3" d="M422.04,232.43c-.94-.75-1.93.19-4.96,0a61.5986,61.5986,0,0,0-12.41,0,117.0257,117.0257,0,0,1-16.12,0c-3,.08-5.79.13-8.45.14a58.8977,58.8977,0,0,1-7.68-.14,29.6758,29.6758,0,0,0-6.77-.36c-2.07.23-4.19.27-5.64.36-3.24.42-4.96-.52-4.96-.01a5.7671,5.7671,0,0,1,0-3.09,15.7129,15.7129,0,0,1-.3-3.78c-.06-1.13.27-2.58.3-4.64-.13-1.66-.06-3.52-.11-5.8a50.7789,50.7789,0,0,0,.11-6.62c-.01-4.22-.2-8.56,0-13.09-.15-4.61.39-9.73,0-14.24-.2-5.19.2-10.06,0-14.49.51-3.76-.13-9,0-13.85.14-4.12-.25-8.39,0-12.33-.04-4.04.72-7.53,0-9.9-.58-2.43.88-5.28,0-6.6-.31-1.65-.13-2.37,0-2.4.45-.5-1.9-.5-1.86,0-1.09.22-3.13-.53-5.27,0a55.8111,55.8111,0,0,0-8.28,0c-3.34-.44-7.11.16-10.84,0a69.5757,69.5757,0,0,0-12.99,0c-4.32-.44-9.65-.15-14.69,0-4.76-.13-10.56.29-15.98,0-5.29.12-11.12-.04-16.84,0-5.86.01-11.59-.12-17.26,0-3.03.14-5.56.09-8.65-.02a44.2091,44.2091,0,0,0-8.61.02,78.8444,78.8444,0,0,0-8.49-.25,60.9788,60.9788,0,0,0-8.35.25,55.4232,55.4232,0,0,0-8.14-.18c-2.87-.05-5.33.07-7.84.18-6.23.05-11.97-.29-17.44,0-5.52.69-10.3-.89-14.86,0a42.2914,42.2914,0,0,1-11.52,0,63.5876,63.5876,0,0,0-7.46,0c-2-.45-1.59-1.23-2.65,0-1.71.07.21,1.08,0,3.33.02,1.39-.2,2.87-.18,4.35a17.1424,17.1424,0,0,0,.18,4.59c-.31,1.54.06,3.51.15,6.01a10.1332,10.1332,0,0,1,.43,3.26,10.45,10.45,0,0,1-.58,3.66,12.3963,12.3963,0,0,1,.33,3.67,7.6513,7.6513,0,0,1-.08,3.38,24.6191,24.6191,0,0,1-.31,3.9,5.7788,5.7788,0,0,1,.06,4.38c.09,1.66.1,2.97.07,3.89a10.5774,10.5774,0,0,0-.07,4.17,37.3031,37.3031,0,0,0-.04,3.75,18.4657,18.4657,0,0,0,.04,4.32,21.2845,21.2845,0,0,1,.23,3.92,23.3833,23.3833,0,0,0-.29,3.95,4.88,4.88,0,0,1-.21,3.86c.14,1.31-.32,2.36.27,3.6-.53,1.07-.13,2.43-.25,3.45-.17,1.25.29,2.31.06,3.45a54.2921,54.2921,0,0,1,.19,6.03,27.9822,27.9822,0,0,1,.1,5.23,7.2971,7.2971,0,0,1-.1,3.71c-.61,1.96.86,3.21,0,3.33-.21-.48-1.24,1.16-3.15,3.79a28.8142,28.8142,0,0,0-3.3,4.19,9.6282,9.6282,0,0,0-2.06,2.35c-.57.38-1.13,1.72-2.16,2.49-.19.85-1.76,1.65-2.36,2.73a7.6459,7.6459,0,0,0-2.04,2.7,35.3142,35.3142,0,0,1-4.57,5.36c-1.48,1.74-2.95,3.06-4.21,4.85a26.6283,26.6283,0,0,0-3.31,4.18,35.6234,35.6234,0,0,0-3.15,3.78,29.954,29.954,0,0,1-2.62-4.25c-1.79-2.26-2.67-4.06-2.61-4.27-.06-.3-.23-.33-1.92,0-1.27.14-2.83-.2-4.8,0a22.5975,22.5975,0,0,0-6.16-.19,50.1041,50.1041,0,0,0-6.31.19c-1.79.24-3.49-.32-4.89-.13-1.66.67-1.87.08-1.83.13-.51,1.25-2.29.31-1.5,0a3.33,3.33,0,0,0-1.73-.14,19.5245,19.5245,0,0,1-5.22.14,46.24,46.24,0,0,1-6.66.37,16.53,16.53,0,0,1-6.24-.37c-1.78.23-3.54-.57-4.96-.2a2.9838,2.9838,0,0,0-1.98.2c-.13.04.74,2.8,0,4.84.07,2.42-.88,5.06,0,4.85.09.84-1.51.5-1.11,0-.47-.48-2.01.66-5.32,0a22.5444,22.5444,0,0,0-4.79-.24c-1.49.09-3.21.18-5.09.24-2.73.1-5.34-.63-5.32,0a51.3781,51.3781,0,0,1,0,5.14,40.9623,40.9623,0,0,0-3.84,3.32c-1.55,2.04-3.3,3.61-3.83,3.3a39.2846,39.2846,0,0,0,0,6.25c-.19,4.13.64,7.33,0,11.6-.8,3.39.27,5.58.04,6.17.34-.22,2.66.03,5.44.08a46.9782,46.9782,0,0,1,5.47-.48,18.3655,18.3655,0,0,1,4.71.48c3.29,1.31,5.59.55,5.48,0a8.7266,8.7266,0,0,0,1.41-.14c-.36-.54.06.13,1.48-.31,1.87.16,3.91.67,5.43.45,1.13,1.13,3.76.86,5.7.48,1.56-.42,2.63.4,3.86-.26,1.82.46,2.07.46,3.09-.22a7.4383,7.4383,0,0,0,4.91.04c.96-.27,1.88.67,1.91-.04.85.36-.12,4.05-.02,4.5a33.5081,33.5081,0,0,0-5.9.04c-1.98-.23-5.17.91-5.81.29.04-.06.02-.14-.08-.22a.0342.0342,0,0,1-.02.01.0191.0191,0,0,1,0-.03c-.01-.01-.02-.02-.03-.02a.5939.5939,0,0,0-.08.11c-.73.29-4.05.88-5.42-.14-2.56-.39-3.89.05-5-.15a9.51,9.51,0,0,1-5.16.15c-2.78-.41-5.82-.16-5.46,0-.04,1.32-2.02.55-2.79.68-.86-.53-2.27-.15-3.31.53-2.07,1.07-4.59,2.1-5.19,3.46-.56,2.44-2.23,3.62-3.46,5.18-.02,2.19-1.52,4.47-1.2,6.1-.26,2.47.83,5.69,2.18,8.04a33.3392,33.3392,0,0,0,5.72,5.73,20.4329,20.4329,0,0,0,3.52,1.43c1.11.58,2.34.5,4.37.73a9.2055,9.2055,0,0,1,3.98.02c.91-.56,2.45.08,4.18.11,1.68-.1,3.52.11,5.67-.11,1.5.9,4.28-.04,6.28.25a26.36,26.36,0,0,0,7.2-.25,33.4426,33.4426,0,0,1,7.55,0,26.8086,26.8086,0,0,0,7.13,0,33.5291,33.5291,0,0,1,7.4-.17c2.25-.04,4.39.16,6.08.17a28.3764,28.3764,0,0,0,5.43.05c1.58-.01,2.99-.04,4.43-.05a10.1573,10.1573,0,0,0,3.83-.03c.01-.01.01.01-.01.03.01,0,.02-.01.04-.01.41-.12,2.6.08,5.44.01,3.24.03,7.3-.05,10.18,0,3.63.47,5.94-.7,5.49,0a7.1617,7.1617,0,0,0,3.86-.19,22.2409,22.2409,0,0,0,4.18-1.99c1.23-.84,2.18-1.81,3.28-2.51a25.3411,25.3411,0,0,0,2.45-3.22c.6-1.5,1.52-2.62,1.64-3.93a13.3873,13.3873,0,0,0,.54-4.11,8.3228,8.3228,0,0,0-.73-4.39c-.37-1.44-1.6-3.28-1.45-3.66-.5-2.25-1.11-2.3-2.36-3.46-1.43-1.5-2.61-1.56-3.37-2.26-1.16-1.33-1.54-.93-3.72-1.61-2.3-.22-2.47-1.33-4.32-.57-.86.91-1.04-.74-2.4.35a13.56,13.56,0,0,0-4.46-.35c-2.11.35-4.4.99-4.59.17-1.77.66-3.19.15-2.27-.17-.01-.63-.06-3.7,0-4.54-.63-1.18,3.42.72,5.58,0a17.3342,17.3342,0,0,1,5.59,0c.04.43.75-.62-.04-2.09-.67-1.1.26-3.56.04-4.35a19.2261,19.2261,0,0,0,0-4.43c.62-1.25.68-1.84.01-2.01a8.847,8.847,0,0,0-1.95-3.15c-1.22-1.48-.01-3.99-1.94-3.16-.15-1.14.69-2.21,1.66-1.75a17.3641,17.3641,0,0,1,3.37-4.29,9.295,9.295,0,0,0,2.22-3.17,4.9335,4.9335,0,0,1,2.44-2.45c.99-.83,1.26-1.77,2.2-2.91.07-1.02,1.83-2.36,2.47-2.7a15.1226,15.1226,0,0,0,3.58-4.31c1.59-1.62,1.15-2.78,1.44-1.73.7.41,1.09,2.8,0,4.91-1.12,1.43-.18,3.56-.1,5.24a6.6761,6.6761,0,0,0,0,2.95c-.23,1.42.8,2.02.1,3.53a23.6418,23.6418,0,0,1-.26,3.86c.23,1.35.79,1.89.35,3.23-.33,1.28.16,2.01-.04,3.17.38,1.37.56,2.78-.05,3.72.43,1.15.5,2.7-.14,3.28.36,1.06.14,1.53.03,2.98-.47,1.62.04,3.47.11,5.46-.05,2.81-1.79,4.54,0,4.91.22.95.42-.54,1.85,0,.86-.53,4.19,1.37,5.28,0a4.784,4.784,0,0,1,3.6.2c1.16-.24,3.41.09,4.68-.2a39.961,39.961,0,0,1,5.06-.04c1.7.56,3.89.01,5.78.04.68.39,1.93.09,3.01.02.97-.65,1.9-.02,3.24-.02a22.843,22.843,0,0,0,3.31,0,24.3625,24.3625,0,0,1,3.42,0c3.71,0,8.63.27,12.66,0,4.49-.15,9.16-.03,13.66,0,4.34.21,9.24-.54,14.39,0,4.85.08,10.04-.03,14.83,0,4.94.21,9.87.05,15.02,0a132.2365,132.2365,0,0,1,14.9,0c4.88.02,9.67-.07,14.52,0,5.09-.29,9.31-.09,13.85,0,2.38.1,4.55.06,6.65.01,2.11-.04,4.14-.09,6.26-.01,2.11.03,4.18-.02,6.21,0a40.0045,40.0045,0,0,0,5.48,0c2.18.55,3.91-.18,5.39.15a42.2755,42.2755,0,0,1,4.79-.15c1.63,1.05,2.83-.09,4.34.08a21.0607,21.0607,0,0,1,4.07-.08,6.5787,6.5787,0,0,0,3.45,0c1.39.32,2.24-.19,2.9,0a25.534,25.534,0,0,1,5.38.06,3.4205,3.4205,0,0,0,.24-.93,22.5782,22.5782,0,0,1,2.68-2.72,6.0671,6.0671,0,0,1,3.43-3.12c1.31-1.22,2.74-2.59,4.16-4.09,3.19-2.63,6.38-6.29,10.73-10.2,3.84-4.17,7.28-8.22,12.3-11.69,4.87-4.51,8.77-7.49,12.29-11.7,2.6-3.85,8-6.93,10.73-10.2,2.65-3.11,5.99-5.41,7.59-7.21C420.93,233.52,423.08,233.01,422.04,232.43ZM150.03,132.31a63.8739,63.8739,0,0,0,0-7.72,8.3269,8.3269,0,0,0,2.01,0c1.36-.1,3.24.04,5.72,0h66.82c5.76,0,11.63.09,17.56,0h17.8c5.76-.04,11.84-.04,17.56,0h74.55v15.44H310.46c-5.75.13-11.82.07-17.49,0-6.28-.14-11.79.1-17.48,0-5.6-.07-11.21.06-16.07,0-5.21-.02-9.32.04-13.24,0-3.75-.1-6.99-.14-8.98,0a10.4622,10.4622,0,0,0-3.3,0,7.2506,7.2506,0,0,0-2.24-3.3,2.294,2.294,0,0,0-1.16-.77,17.97,17.97,0,0,0-4.09-2.08,20.0981,20.0981,0,0,0-4.33-1.3,7.4888,7.4888,0,0,0-3.05.68,6.5924,6.5924,0,0,0-2.44,1.9c0,.13-1.08,1.3-2.03,2.44-1.05,1.23-1.87,2.32-2.03,2.43a27.5756,27.5756,0,0,0-4.63,0c-2.8-.02-6.98-.16-11.57,0-2.42-.1-4.84-.03-7.32.03s-4.99.02-7.73-.03c-2.55.13-5.39.06-7.81.08a18.9164,18.9164,0,0,1-7.24-.08c-2.15-.18-4.63.24-6.42.05-1.85-.53-3.24-.04-5.15-.05-2.93,0-4.73.25-4.63,0C150.14,140.19,150.12,136.2,150.03,132.31Zm99.8,68.04c.6,1.88-.21,3.58.21,6.22-.65,2.1-.43,5.24-.21,7.69.01,1.71.03,5.45-.19,8.08-.03,3.03.33,5.64.19,8.51-.17,2.61.06,4.7-.34,7.69.45,2.03.04,4.51.34,6.21a48.5769,48.5769,0,0,1-.37,5.69,1.1436,1.1436,0,0,1,.37.14c-.36.57-.43.46-.37-.14a20.899,20.899,0,0,0-5.6.14c-1.81.38-4.44.02-6.37-.12-1.59.05-4.42.04-6.77.12a28.8218,28.8218,0,0,1-6.97.1,40.077,40.077,0,0,1-6.17-.1c-4.14.65-5.67-.17-5.97,0,.11-1.22-.36-2.74,0-5.83.54-3.88-.1-8.7,0-13.9a136.6457,136.6457,0,0,0,0-16.59,120.6356,120.6356,0,0,1,0-13.91c.56-2.92.7-4.88.4-5.56-.34-.01-.49-.08-.4-.27.17-.03.31.06.4.27.85.03,2.9-.31,5.57-.27,1.65-.03,3.76.22,6.04.35a37.614,37.614,0,0,0,7.1-.35c1.53.08,2.19.2,3.85.17a14.3648,14.3648,0,0,0,3.46.05,34.3323,34.3323,0,0,1,5.83-.22,6.9758,6.9758,0,0,1,4.33-.69c1.24-.11,2.36.42,1.64.69C248.51,194.86,249.43,196.45,249.83,200.35Zm-36.67-8.89c.01.02.04.03.07.06C213.13,191.55,213.11,191.53,213.16,191.46Zm34.94.09a29.9852,29.9852,0,0,0-5.36-.03c-1.22.89-3.76.58-5.67.57a13.2191,13.2191,0,0,0-3.19-.27,16.1677,16.1677,0,0,1-3.16-.3,28.096,28.096,0,0,1-6.16.44c-2.07-.11-4.1-.37-5.86-.44-2.32.4-5.25-.22-5.52-.09.14-.21.65-.71,1.36-1.48a39.6222,39.6222,0,0,0,4.05-5.12c1.93-1.77,2.41-4,3.87-4.94,1.03-1.48,1.65-2,1.5-1.75.3-.06.55.43,2,.43a13.86,13.86,0,0,0,4.76-.43c2.08-.05,3.76-.52,4.71-.11a13.3849,13.3849,0,0,0,2.05.11c.64.04.51,1.02,1.7,2.46,1.1.67,2.02,3.33,3.66,4.23a19.2246,19.2246,0,0,0,3.87,4.68,5.2019,5.2019,0,0,0,1.39,2.04c.07,0,.11-.01.11-.03C248.35,191.7,248.28,191.7,248.1,191.55Zm-30.54-26.68a.2.2,0,0,1-.01.13c.41.28,3.67.33,5.84-.13,2.71-.3,6.15-.2,5.83,0a2.88,2.88,0,0,0,0,1.94c.08.39-2.06,2.57-3.35,4.15-1.24,2.02-3.64,4.03-3.45,4.18a28.0386,28.0386,0,0,1-5.01,0c-2.02-.04-5.13-.02-5.12,0a6.51,6.51,0,0,1-2.64-.75c.11-.76,1.99-1.69,3.95-4.76,1.62-2.53,3.83-3.9,3.95-4.63C217.5,164.96,217.5,164.92,217.56,164.87Zm11.61-3.01a43.35,43.35,0,0,0-4.53.01h-4.59l9.17-11.03v5.52A26.7305,26.7305,0,0,0,229.17,161.86Zm9.75,13.21a.082.082,0,0,1,0,.07.3972.3972,0,0,1-.13-.09c.02,0,.06.01.13.02-.16-.43-1.95-2.33-3.35-4.11a17.8678,17.8678,0,0,0-3.35-4.18,9.3571,9.3571,0,0,1,0-1.91,8.1485,8.1485,0,0,0,3.47,0c1.25-.15,2.24.63,4.05-.02,2.22-.49,3.12.28,5.23.02,1.17-.1,2.02.31,3,.05a10.1115,10.1115,0,0,1,3.26.02,11.5281,11.5281,0,0,1,3.49-.01c1.02.05,2.51-.21,3.7-.06,2.7.17,5.47-.18,7.65.15a69.8559,69.8559,0,0,1,8.29-.15c2.38-.39,5.52.04,8.24.12,2.89.14,5.54-.18,8.54-.12a44.9394,44.9394,0,0,0,8.19.08c2.63-.11,5.34-.19,7.75-.08,2.45.15,4.99.06,7.14,0,2.41.45,4.23-.09,6.31,0a46.95,46.95,0,0,0,9.29,0c2.1.5,3.5-.44,3.47,0,1.3-.21,2.41.62,3.62,1.51a7.711,7.711,0,0,1,1.51,3.63,3.8428,3.8428,0,0,1-1.51,3.63,4.8893,4.8893,0,0,1-3.62,1.5c-.02.07-1.47.02-3.24,0-1.4-.13-4.99.04-8.67,0-3.17-.31-7.79.22-12.56,0-4.62-.42-9.47-.07-14.88,0-4.95-.12-10.59,0-15.67,0-2.54.01-4.81.16-7.63,0-2.08.49-4.55-.29-7.25,0-2.58.21-4.44.6-6.75.09a26.7652,26.7652,0,0,1-5.81-.09c-1.66-.83-3.43.02-5.19.05a17.8936,17.8936,0,0,1-3.48-.05A8.57,8.57,0,0,1,238.92,175.07Zm-6.02-2.65c1.59.86.98,1.86,1.91,2.54a.3824.3824,0,0,1,.27.18,1.2662,1.2662,0,0,1-.27-.18,12.5077,12.5077,0,0,0-4.09.18c-1.92-.4-3.54-.84-4.18-.25.71-.94,2.07-.97,2-2.47,1.13-.35,1.52-1.65,1.79-2.34-.02-.18.02-.3.15-.35a1.7137,1.7137,0,0,0-.15.35A4.2436,4.2436,0,0,0,232.9,172.42Zm-2.4-2.7c.07-.11.14-.12.22-.01A.517.517,0,0,0,230.5,169.72Zm-68.48,24.8c-.01.11,4.84-.04,5.18,0-.13,0-1.21,1.8-2.59,3.12-1.32,1.59-2.58,2.83-2.65,3.08C161.66,200.18,162.08,194.45,162.02,194.52Zm-11.99-37.19c-.4-3.96.15-7.3,0-10.3.15-2.57-.14-4.07,0-4-.09-.07,1.6-.01,4.44,0,2.87-.25,6.86.95,11.12,0,4.21.05,9.6-.02,14.44,0,5.63.08,10.01,0,14.45,0h15.56s-4.48,5.39-10.46,12.57c-2.99,3.59-6.31,7.66-9.71,11.68-3.85,3.64-6.61,8.58-9.71,11.67-1.5,1.96-2.88,3.66-4.12,5.14-1.28,1.36-2.38,2.66-3.35,3.84-1.98,2.91-2.96,3.72-2.99,3.59a21.1318,21.1318,0,0,1-5.34,0c-2.09.61-4.98-.37-5.34,0,.05.13-.11.9-.03,2.1.13,1.07.02,2.79.03,4.32a26.9919,26.9919,0,0,0,0,4.42c-.26,1.25.52,1.84,0,2.01-.31,0-2.7,2.63-4.5,5.4-1.72,2.87-4.34,5.85-4.49,5.4-.32.16-.5-1.58,0-3.99-.46-1.13.32-3.27,0-4.53a19.622,19.622,0,0,1,0-5.78,34.4365,34.4365,0,0,1,0-6.75c.11-2.47.13-4.84,0-7.34a135.6769,135.6769,0,0,1,0-15.36C150.21,167.21,149.03,161.18,150.03,157.33ZM30.99,270.32c.14-.14.21-.1.24.09C30.93,270.37,30.83,270.34,30.99,270.32Zm0,18.91a.3523.3523,0,0,1,.15-.17C31.09,289.16,31.04,289.22,30.99,289.23Zm19.06-21.95c-.44-.43-.99-.03-2.62-.2a18.2621,18.2621,0,0,1-5.62.24,21.1323,21.1323,0,0,1-5.73-.28c-.87,0-1.59-.03-2.04.01-.26.23-.44.35-.51.27-.04-.17.15-.24.51-.27.47-.42,1.21-1.22,2.05-1.94a4.721,4.721,0,0,0,2.57-2.21c.22.17-.29-3.49,0-3.53a9.6075,9.6075,0,0,1,2.64-.33,52.5491,52.5491,0,0,1,6.12.33,17.4178,17.4178,0,0,1,6.22-.08c1.43-.23,2.72-.04,2.54.08v-.02c-.03-.01-.38,2.85,0,2.87.05.39-1.56,1.78-3.05,2.55C52.17,266.37,50.05,267.06,50.05,267.28Zm70.31,32.49c.3.22.55-.13,1.72-.17a21.0475,21.0475,0,0,0,5.14.17,32.8714,32.8714,0,0,0,4.61.24c1.43,0,1.4-.38,2.25-.24a11.0716,11.0716,0,0,0,3.55.83c1.49.57,2.02,1,2.98.94,1.06.77,2.13,1.04,2.52,2.13a26.7942,26.7942,0,0,0,2.13,2.52c.85.48.85,1.88,1.34,2.92.78,1.09.33,2.51.43,3.61a7.9455,7.9455,0,0,1-.22,3.41,7.6958,7.6958,0,0,1-1.55,3.12c-1.03,2.12-2.37,3.89-4.65,4.65a13.3667,13.3667,0,0,1-6.53,1.77H106.92c-4.83.03-9.78-.13-14.68,0-5.06.4-9.5.01-13.48,0-3.94.26-7.72-.41-9.86,0-2.7-.17-3.33.8-3.82,0-2.79-.73-4.73-.29-6.53-1.77-1.46-1.29-3.94-2.86-4.65-4.65a13.0345,13.0345,0,0,1-1.77-6.53,27.088,27.088,0,0,0,.87-3.11c.31-1.28.63-2.61.89-3.41.79-.67.48-1.89,1.81-2.47a10.7644,10.7644,0,0,1,2.82-2.17c.71-.18,1.51-1.1,2.89-1.18a5.2908,5.2908,0,0,0,3.61-.61,48.8753,48.8753,0,0,1,4.98,0c1.9.3,3.61-.8,5.18-.11,1.15.02,1.97-.46,2.96-.14,1.27.13,2.62.21,3.75.25,1.22-.39,2.5.23,3.54.12.72.06,2.3-.01,3.62,0,.87.22,2.37-.43,3.77.08.81.38,2.62.41,3.24-.2a12.3287,12.3287,0,0,1,3.07.14c1.42-.14,1.98-.64,3.45-.14,2.03.06,3.64-.77,5.37,0,2.39.22,5.63.47,4.98,0-.34-.05-.4-.39,0,0-.34-.87,1.78.35,3.71,0C119.1,298.97,121.33,299.58,120.36,299.77Zm-5.24-3a16.84,16.84,0,0,0-5.61,0c-.98-.17-1.86.1-3.54,0-1,.61-2.55.03-3.75,0-.91.68-2.16.02-3.68.37a6.0247,6.0247,0,0,1-3.61-.37c-2.26-.21-4.26.3-5.56-.07a5.3956,5.3956,0,0,0-2.29.07,32.7074,32.7074,0,0,1,0-4.54,10.1768,10.1768,0,0,1,2.3-.02,21.3784,21.3784,0,0,0,5.55.02c1.11.69,3.14.18,4.78,0,1.65.09,3.49-.34,5.02,0,1.95.12,3.86-.55,4.8-.14,1.52.57,2.88-.17,4.01.14,2.53-.39,3.37.35,3.82,0,.3-.11.9,4.26,0,4.54C117.76,296.27,116.44,296.88,115.12,296.77Zm13.45-16.51a22.2068,22.2068,0,0,1-.04,4.45c.41,2.76.86,3.97.04,4.49.18-.22-1.89.12-4.13.03-2.28.6-3.9.45-4.08,0-.77.51-2.86.05-5.67,0-1.16.16-3.46-.03-5.81,0a8.9121,8.9121,0,0,0-3.35.03,23.1558,23.1558,0,0,1-3.31-.03,51.2275,51.2275,0,0,0-6.68-.1,31.29,31.29,0,0,0-5.79.1c-3.39-.06-5.96.09-5.67,0,.19-.05-1.98.05-4.99,0-2.17-.05-3.08.2-5.12,0-1.87.05-3.76.1-5.87,0-2.14.65-3.87.08-5.76.05-1.72.19-3.66-.33-5.22-.05-3.29.22-4.9-.87-4.99,0a42.7216,42.7216,0,0,1,0-5.11,10.2453,10.2453,0,0,0,.21-4.62c-.07-1.88-.06-3.81-.21-4.87.01-2.4-.01-4.74,0-5.11.03.3,1.23-.91,3.52-2.95,1.37-.91,3.41-3.69,3.53-2.95.08.09.74-3.36.1-4.16-.15.08-.19.1-.1-.09a.8053.8053,0,0,1,.1.09,1.49,1.49,0,0,1,1.65-.07c1.61.07,3.58-.23,5.48-.02,2.46.28,3.88-.11,6.72,0,2.18-.15,4.32.22,6.71,0a24.4351,24.4351,0,0,1,5.17,0,3.6588,3.6588,0,0,1,2.1-.04c.36-.46.13-2.77-.03-4.81-.11-2.92.61-4.75,0-4.84a19.4151,19.4151,0,0,1,5.89,0c1.92.07,3.82.06,5.65.03,1.84-.02,3.61-.06,5.29-.03a29.9819,29.9819,0,0,1,5.9,0c-.13-.03,1.21,1.86,2.92,4.77.88,1.3,1.7,3.46,2.94,4.92.93,1.89,2.52,3.73,3.5,5.57.56.86,1.24,1.87,1.87,2.85.63,1.45,1.07,1.53,1.56,2.69a30.9523,30.9523,0,0,1,3,4.95A20.9255,20.9255,0,0,1,128.57,280.26Zm18.1-34.8c-.95,2.49-2.68,3.16-4.3,5.3-1.41,1.77-2.53,3.02-4.06,4.76a52.4562,52.4562,0,0,0-3.46,4.24,31.1193,31.1193,0,0,1-3.07,3.63,19.9321,19.9321,0,0,1-2.31,3.08c-.71.77-1.36,1.38-1.95,2.04-.91,1.5-1.18,1.85-1.52,1.83-.13-.18-1.21-2.23-2.3-3.75a14.8534,14.8534,0,0,1-2.29-3.73,11.5366,11.5366,0,0,1,1.49-1.81,22.1219,22.1219,0,0,0,4.18-5.03c1.01-1.23,1.97-2.59,3-3.93a26.1684,26.1684,0,0,1,3.43-3.8c1.12-1.37,2.57-3.2,3.99-4.69,1.87-1.18,2.54-3.3,4.23-5.19,1.42-2.27,3.7-3.5,4.75-5.67a31.9662,31.9662,0,0,0,4.81-5.83c1.62-1.7,2.9-3.67,5.08-5.98a51.7469,51.7469,0,0,0,5.38-6.6c2.04-2.26,3.66-4.37,5.49-6.35,1.63-2.18,3.55-4.37,5.42-6.76,1.87-2.04,3.29-4.5,5.57-6.67,1.93-2.57,3.27-4.07,5.34-6.45,2.03-2.38,4.38-4.23,5.38-6.3.93-1.08,1.75-2.29,2.57-3.42a14.6259,14.6259,0,0,1,2.51-2.86c1.26-1.3,1.82-1.85,2.97-2.97.42-.81,1.71-2.33,2.22-3.4.85-1.04,1.06-1.97,2.13-2.68.37-.57,1.51-1.53,2.25-2.45,1.64-1.82,2.2-4.54,3.93-5.27,1.63-1.25,2.7-3.19,4.29-4.61a26.4442,26.4442,0,0,1,6.42-7.73,62.8723,62.8723,0,0,0,4.19-5.03c.94-1.12,1.42-1.75,1.5-1.83.24-.92,1.81-1.61,3.18-1.46a4.4132,4.4132,0,0,1,2.64.95,2.7712,2.7712,0,0,1,1.48,2.8,8.7666,8.7666,0,0,1-.94,3.02c.33.07-.47.3-1.52,1.83-.8,1.05-2.31,2.83-4.26,5.12a39.3061,39.3061,0,0,1-3.02,3.57c-1.62,1.35-2.71,2.15-3.51,4.3a27.2381,27.2381,0,0,0-1.91,2.5c.24.87-1.39,1.59-2.11,2.39a6.4862,6.4862,0,0,1-2.32,2.39c-.6.83-1.88,1.81-2.03,2.78-1.58,1.25-1.14,1.95-2.23,2.8-.87.88-.97,1.26-2.42,2.85a9.6876,9.6876,0,0,0-2.75,2.93,20.75,20.75,0,0,0-2.33,3.12c.04,1.59-1.52,1.79-2.19,3.22a8.5968,8.5968,0,0,0-2.53,3.15,39.2721,39.2721,0,0,1-2.71,3.38c-.98,1.04-2.04,2.03-3.21,3.06-2.34,1.84-3.22,4.5-5.42,6.43a30.1925,30.1925,0,0,1-5.68,6.92c-1.79,2.48-3.75,3.91-5.66,6.5-1.79,1.82-4.45,4.27-5.43,6.85a83.5134,83.5134,0,0,0-5.46,6.66c-1.01,2.39-4.08,4.24-5.19,6.15-1.11,1.47-3.89,4.34-5.13,6.18C149.71,243.07,148.09,243.64,146.67,245.46Zm53.57-45.11c-.09,1.42-.1,3.17-.41,5.95a24.2852,24.2852,0,0,0,.41,7.95,57.62,57.62,0,0,1-.07,8.49,21.9417,21.9417,0,0,0,.07,8.11c-.45,3.19-.07,5.18-.23,7.57a40.7932,40.7932,0,0,0,.23,6.33,48.389,48.389,0,0,1-.14,5.84c.05,0,.1-.01.14-.01-.09.12-.13.12-.14.01a43.4864,43.4864,0,0,1-5.83-.01,45.5984,45.5984,0,0,0-6.08-.26c-2.27.12-4.7.32-7.06.26a30.8327,30.8327,0,0,1-13.14,0c-3.69-.05-5.81-.42-5.97,0a31.7728,31.7728,0,0,1,0-4.9c.66-1.44-.65-6.8,0-9.09-.05-2.76-.33-4.89,0-4.9-.05-.73,1.24-1.21,3.21-3.86,2.49-1.77,5.14-4.86,7.66-9.22,3.44-3.17,6.08-6.81,9.15-11,2.83-3.12,5.67-7.17,7.66-9.22,1.8-2.53,3.15-4.19,3.22-3.87.09.43,1.82.64,3.66,0,1.48.03,3.31.39,3.66,0C200.13,194.78,199.85,196.06,200.24,200.35Zm151.81,84c.54,1.17-.02,3.18,0,4.06-.53.92.2,2.55,0,3.02.44,2.13.2,1.85,0,2.54-.2.31.19-.17-1.49,0-1.17-.35-2.79.13-4.26,0a19.9648,19.9648,0,0,1-3.21.1c-.97.52-2.16-.5-3.51-.1-1.2-.29-1.55-.01-3.99-.09a7.9076,7.9076,0,0,0-4.88.09,45.7341,45.7341,0,0,1-5.17.31,29.1977,29.1977,0,0,1-5.54-.31c-1.62-.11-4.04-.01-5.94-.11a14.747,14.747,0,0,0-2.97-.09c-1.1.05-2.27.15-3.32.2-3.78.13-8.64-.14-13.45,0-4.87.03-9.19-.07-14.36,0a143.2887,143.2887,0,0,0-14.95,0c-5.15.03-10.19.51-15.24,0-5.32-.04-10.5-.2-15.22,0-5.28.17-9.57-.06-14.87,0a55.9789,55.9789,0,0,1-14.23,0c-4.89.02-9.18-.78-13.27,0a45.2865,45.2865,0,0,1-7.18,0,47.8177,47.8177,0,0,0-6.68,0c-1.98-.07-4.72-.22-6.12-.08-1.37.49-3.81-.02-5.52.08a46.12,46.12,0,0,1-4.84.09,9.7375,9.7375,0,0,0-4.08-.09,37.3722,37.3722,0,0,1-5.72,0c-2.18.77-2.62.17-2.01,0-.54.06-.27-1.74,0-4.98-.05-1.27.15-3.4-.02-5.38-.09-.86.34-1.97-.01-3.13a11.3963,11.3963,0,0,0,.03-3.35c-.35-1.29.21-2.53,0-3.64a7.06,7.06,0,0,0,0-3.45c.04-.58-.05-2.25-.12-3.52a22.543,22.543,0,0,0,.12-3.56c.59-1.29-.2-2.53-.06-3.39-.39-1.56.2-2.01-.02-3.18-.65-1.91.11-3.88.08-5.29.2-3.48-.61-4.73,0-4.98.43-.92.9-.41,1.57-1.7.74-1.42,1.58-1.97,2.92-3.71,1.59-1.58,1.42-2.94,2.91-3.86.61-.73.67-2.05,1.59-1.55-.44-.26.3,1.7-.08,2.99.85,2.17.4,2.9.08,6.15a34.6644,34.6644,0,0,1,0,6.28c.77,1.81-.09,2.14,0,2.86.14-.32,1.53-.39,4.6,0,2.63-.53,5.72.17,10.97,0,3,.53,9.51-.02,13.09,0a51.8492,51.8492,0,0,1,5.83-.06,45.3875,45.3875,0,0,1,5.14.06c2.14.27,4.32.3,4.59,0a11.3812,11.3812,0,0,1,0-3.02c.77-1.33-.54-1.94-.01-3.54.28-2.26.56-2.73.01-4.33a10.607,10.607,0,0,0,.03-5.07c.12-2.48.03-3.39-.03-5.88.36-2.48.59-4.14.12-6.05-.28-2.26.61-4.07-.12-6.24.13-1.82-.31-3.75-.13-5.92.19-2.17.02-3.83.13-5.92.36-1.09.59-2.7.05-3.48a6.9989,6.9989,0,0,1-.05-2.91c-.34-1.18.49-4.81,0-5.1.69-2.94.5-4.31,0-4.6.19,1.49-2.52,1.31-3.91,0a12.9935,12.9935,0,0,1-3.47-.09c-.17.15-.32.19-.45.09,0-.1.17-.11.45-.09.57-.48,1.42-2.13,2.74-3.74.6-1.18,2.21-2.25,2.85-3.72,1.43-1.71,3.11-1.89,3.07-3.41,2.19-2.1,3.11-3.43,3.18-3.83,1.06,1.33,1.67,1.89,4.48,1.43-.28,0,3.4-1.3,4.02-.02.93-.02,3.34.06,3.84.03.02-.02.04-.02.07-.03.04.01.01.02-.07.03-.74.24.39,1.35-1.54,1.91-1.41,1.14-2.41,3.41-3.75,4.75a12.4811,12.4811,0,0,0-3.69,4.6c-.73,1.22-1.28.77-1.67,2.09-.73-.63-.8-.7-.78,0-.68.22.79,1.9,0,4.6,1.24,1.21.08,2.56.02,4.28.14,1.48-.6,3.7-.02,4.97-.37,1.64-.04,3.87-.08,5.79a30.5478,30.5478,0,0,0,.08,6.24c.29,2.24-.24,5.11.09,6.56-.04,2.31.94,3.97-.09,6.28.87,2.45-.1,4.11.09,6.24.19,2.52-.34,3.56-.09,5.4a37.4354,37.4354,0,0,0,.04,4.73,14.7876,14.7876,0,0,0-.04,3.71,14.3939,14.3939,0,0,0,.05,3.24,2.0119,2.0119,0,0,1,1.73.04c.92.31,2.81-.14,4.64-.02a34.2968,34.2968,0,0,0,5.86.01,12.7034,12.7034,0,0,1,6.06-.01,15.9686,15.9686,0,0,0,4.54.23c.67-.11,1.33.06,1.66,0,.04-.19.11-.28.23-.23-.01.14-.09.2-.23.23a12.6689,12.6689,0,0,0,.25,2.82c.88,1.14,3.25.23,2.98-.02-.27-.38.18-2.66.03-2.99.37.53.72-.06,2.42.08,2.22-.3,3.4.36,5.77-.12,3.15.07,3.1-.41,5.82-.09,1.39.87,2.58.24,2.41.09-.95-.57.62-2.53,0-5.52-.17-.71.5-2.87.06-5.33-.23-3.23.24-5.87-.06-7.86a37.57,37.57,0,0,0-.02-8.14c.34-3.23-.76-5.24.02-7.59.21-2.13-.71-4.64.2-7.18.44-1.95-.24-4.49-.2-6,.44-3.89.11-5.13,0-5.53.12-.45,1.92.97,3.77,0,3.3.77,4.02.86,3.76,0,.1-.12.42-2.85,0-3,.5-.55-2.01-.26-3.76,0-1.06.59-2.93-.07-3.58-.14a.2836.2836,0,0,1-.19.14c-.09-.13,0-.17.19-.14.7-.98-.11-6.81-.19-5.77-.87.1-.03.92-.76.02-.01-.01-.01-.02-.02-.02a5.4586,5.4586,0,0,1-1.69-2.04c-.87-1.55-2.78-3.07-3.67-4.65a22.8239,22.8239,0,0,0-3.53-4.44c-.54-.83-1.79-1.94-1.83-2.25.44-.23.06.12,2.94,0,.48.29,1.73-.13,3.34.1,1.15-.45,2.31,0,4.58-.1,1.49-.16,2.97-.08,5.17-.09a42.3007,42.3007,0,0,1,6.36.09c2.46-.04,4.25.12,6.62.02,2.13.16,4.75-.03,7.18-.02,2.03.05,3.61-.2,5.48,0,1.74-.18,3.39.15,5.54,0,1.78-.32,3.69.34,5.52,0,1.87.31,3.13-.15,5.43,0a28.6262,28.6262,0,0,0,5.21.05,14.1185,14.1185,0,0,1,5.11-.05c1.22-.04,2.91-.03,4.69-.25a18.7929,18.7929,0,0,1,4.42.25c2.02.07,4.72-.48,5.88,0a15.1962,15.1962,0,0,1,4.53,0c2.43,0,3.72-.43,3.96,0,1.9.11,1.94-.91,3.11-.61a3.7455,3.7455,0,0,0,2.63-1.77,4.1292,4.1292,0,0,0,1.77-2.63c-.13-1.01,1.3-1.8.62-3.12a16.6086,16.6086,0,0,1-.67-3.22,8.33,8.33,0,0,0-1.71-2.53,11.9448,11.9448,0,0,0-2.61-1.81c-1.22-.58-1.87-1-3.14-.58-.11.37-1.08.12-2.68,0a16.55,16.55,0,0,1-3.15,0c-1.03.08-2.46-.19-4.15,0-1.23-.03-2.8.38-4.27,0a23.4937,23.4937,0,0,0-4.82,0c-1.57-.5-3.42-.03-5.28-.04-1.67-.27-3.97.39-5.67.04-1.93.08-3.84.1-6,.02-2.18.26-3.95-.1-6.13-.02-2.27-.08-4.18-.21-6.37-.17-2.11.15-4.09-.21-6.22.17a28.4419,28.4419,0,0,0-6.43.08,14.4692,14.4692,0,0,1-5.93-.08,24.4215,24.4215,0,0,1-6.03.05c-1.78.09-3.17-.11-5.4-.05-2.2-.04-3.34-.08-5.35-.01-1.8.32-3.38-.1-4.44.01a26.4021,26.4021,0,0,1-5.26,0,7.4011,7.4011,0,0,0-4.02,0c-3.07-.29-3.43.28-3.47,0,.41.06.5-1.03-.07-2.32a32.7866,32.7866,0,0,0,.07-5c-.41-1.46.12-3.9-.03-5.01a6.7984,6.7984,0,0,1,.03-2.31c.14.61,1.15-.36.38-.45,1.29-.82,1.18-2.45,1.6-3.75.29-.02,1.66-.05,3.3,0a21.5094,21.5094,0,0,0,3.98-.06c1.25.17,2.66-.08,4.97.06,1.74.07,4.47-.13,6.16,0a22.2045,22.2045,0,0,0,3.4-.03,9.458,9.458,0,0,0,3.64.03c2.43-.32,4.62.05,6.82.03,2.5.12,4.63.04,7.1-.03,2.68-.26,5.44-.1,7.48-.17,2.75.14,5.55.26,7.66.17,2.6.02,4.72-.46,7.7-.04a49.6176,49.6176,0,0,0,7.7.04,32.09,32.09,0,0,0,7.45.32c2.41-.05,4.79-.2,7.28-.32,4.66.26,9.18-.34,13.11,0,3.57-1.51,7.37.33,10.53,0,2.8,0,5.24-.47,7.02,0,2-.01,1.82.24,2.55,0,.24.25-.13.8,0,2.07-.11,1.41.17,2.52,0,5.81-1.2,2.37-.88,5.14,0,8.95.3,4.54-.57,8.18,0,11.48-.36,4.7.24,8.86,0,13.43-.21,5.45.23,9.96,0,14.76-.17,2.25.01,5.38,0,7.69-.2,2.52.2,5.09,0,7.8-.18,2.76.05,4.91,0,7.72-.1,2.31-.14,5.43,0,7.9.35,2.53-.14,5.41-.09,7.68,0,2.4-.13,5,.09,7.48.07,2.54.03,5.24.01,7.33-.14,2.08.16,4.69-.01,6.76a12.1105,12.1105,0,0,0,.01,3.66c-.33.95.49,2.51-.01,3.49a8.4088,8.4088,0,0,0-.08,3.38,16.8679,16.8679,0,0,0,.08,3.15c.21,2,.66,4.04.01,5.68A41.18,41.18,0,0,1,352.05,284.35Zm3,7.63a1.4944,1.4944,0,0,1,.21-.5A.9149.9149,0,0,1,355.05,291.98Z"/><path class="cls-3" d="M355.05,296.97a.0911.0911,0,0,1-.04.06C355.25,297.06,355.27,297.06,355.05,296.97Z"/><path class="cls-3" d="M65.08,296.77l-.01.01.01.01Z"/><path class="cls-3" d="M50.54,292.09a1.4887,1.4887,0,0,0,.09.14C50.87,292.06,50.8,292.05,50.54,292.09Z"/><rect class="cls-3" x="274.6017" y="246.4176" width="3" height="9.0313"/><rect class="cls-3" x="242.5217" y="256.4947" width="9.0322" height="3"/><path class="cls-3" d="M277.6017,210.2916c-.01.001-.0151.0149-.0241.0173C277.6013,210.3013,277.6137,210.2949,277.6017,210.2916Z"/><path class="cls-3" d="M277.6017,214.8072c-.4345-1.96-.5549-4.3628-.0241-4.4983-.2888.0933-3.0349.4619-2.9759-.0173a18.1445,18.1445,0,0,1,0,4.5156c-.3625,2.6931.22,4.0884,0,4.5156.5691.6252,3.0162.2782,3,0C278.1535,219.7835,278.2109,217.8722,277.6017,214.8072Z"/><path class="cls-3" d="M274.6017,228.3541l.0017.0007C274.6015,228.3035,274.6,228.2877,274.6017,228.3541Z"/><path class="cls-3" d="M277.6017,228.3541c.2574-.27-2.6831.2178-2.9983.0007.01.2615.0513,1.9694-.0017,4.5149.0486,2.0676.3321,4.1508,0,4.5156.2666-.08,2.9417.3444,3,0a9.2792,9.2792,0,0,1,0-4.5156A22.6921,22.6921,0,0,0,277.6017,228.3541Z"/><path class="cls-3" d="M269.3947,200.4351c.54-.0092,4.6782-.1325,5.207,0,.2652.0167-.268.47,0,.8252-.59.1546,3.095.7464,3,0-.2407.0752-.3767-3.2019,0-3.8252a18.3984,18.3984,0,0,0-4.1035,0c-1.9106-.1556-4.6372-.2951-4.1035,0C269.7414,197.2427,269.3769,199.8809,269.3947,200.4351Z"/><rect class="cls-3" x="260.5851" y="256.4947" width="9.0313" height="3"/><path class="cls-3" d="M162.17,176.5863c2.438,1.3259,5.3081,4.2491,8.2388,3.4182,2.333.1173,6.4536-1.0931,8.2383-3.4182,2.4963-1.8717,3.5161-4.9933,3.4179-8.2391-.05-2.79-.562-6.1613-3.4179-8.2385-2.3985-1.6462-5.02-3.4927-8.2383-3.4177-2.84.5936-6.3711,1.2182-8.2388,3.4177a10.8294,10.8294,0,0,0-3.418,8.2385A20.5183,20.5183,0,0,0,162.17,176.5863Zm2.12-14.3572c.92-1.9519,3.2019-2.6377,6.1184-2.5381a7.7617,7.7617,0,0,1,6.1179,2.5381c1.6909,1.55,2.292,3.7389,2.5383,6.1181-.6164,1.8665-.7324,3.9534-2.5383,6.1187a8.5257,8.5257,0,0,1-6.1179,2.5386c-2.6321.0052-4.4527-1.3536-6.1184-2.5386-1.7017-2.52-2.2115-2.6862-2.5384-6.1187C162.2946,165.7384,163.068,163.4567,164.2905,162.2291Z"/><path class="cls-3" d="M290.4133,200.4254c-.1338.1054,2.1516-.03,5.1486,0,1.49-.1652,3.43-.0058,5.6106.0024,1.89-.1288,4.4632.2581,6.667-.0024,2.2906.8169,4.6758.567,7.3113.1637,2.1406-.1059,4.8252.4113,7.3428-.1637,3.0256-.0268,4.56.1146,6.7991-.019a26.1768,26.1768,0,0,1,5.4787.019,48.1924,48.1924,0,0,1,5.1487,0c-.0349-.031-.0476-2.9076,0-3,.145-.106-2.0049.1695-5.1487,0-2.8369-.0679-7.3117.299-12.2778,0a106.7038,106.7038,0,0,0-14.6541,0c-4.8681-.1071-9.0673.3113-12.2776,0-3.2751.276-5.5478.7032-5.1486,0C289.9951,197.3306,290.5326,200.5031,290.4133,200.4254Z"/><path class="cls-3" d="M290.4133,224.0533c.4809-.0357,1.7006-.0433,5.1486,0,1.2752.0532,2.7669-.9,5.5081.0319a7.4441,7.4441,0,0,0,3.1243-.2134,8.5123,8.5123,0,0,1,3.6452.1815c1.011-.236,2.0972.4771,3.677.3458a4.9032,4.9032,0,0,0,3.7937-.313,27.664,27.664,0,0,1,3.4844-.1888,36.3639,36.3639,0,0,1,3.699.156,7.0487,7.0487,0,0,0,3.2446.2335c1.1174-.0394,1.9036-.0959,3.4885-.2335,2.199.051,3.9126-.0942,5.5447,0,2.929.1766,5.39-.19,5.1487,0,.1479.1411-.1858-2.94,0-3-.2205.1986-2.228.4175-5.1487,0a26.5713,26.5713,0,0,0-5.4846-.2554c-2.0989.1559-4.76-.2133-6.7932.2554-2.9373-.7442-5.0794-.2222-7.5925.0892-3.1426.2975-4.6206-.3078-7.0616-.0892a46.0635,46.0635,0,0,0-6.4443.3317,15.0164,15.0164,0,0,1-5.8333-.3317c-3.54.16-4.9663-.2961-5.1486,0C290.2934,221.1664,290.018,224.811,290.4133,224.0533Z"/><path class="cls-3" d="M290.4133,244.6812c-.0865.032.0161.0727.2641.109C290.6274,244.6417,290.5441,244.5853,290.4133,244.6812Z"/><path class="cls-3" d="M290.4133,247.6812a31.2557,31.2557,0,0,0,5.1486,0c1.337-.0732,3.1346-.0664,5.2339-.0448a55.26,55.26,0,0,0,7.0437.0448c3.0764-.05,4.8355-.4326,7.69-.0085,2.4243.3917,4.4939-.1409,6.9639.0085,2.7549-.1487,4.6289.3784,6.8474.11,2.0891-.0288,3.9421-.0942,5.43-.11,3.0694.1847,5.1123-.1082,5.1487,0,.0872-.0031-.0649-3.1668,0-3-.1494-.1148-1.9758.0576-5.1487,0-1.5964-.6942-3.9929-.3167-5.6423-.196-1.6323-.1615-4.4693.1792-6.6355.196-2.1167.66-5.2605.1194-7.2969.1078-2.5356-.1682-4.9526.3248-7.3572-.1078-2.5673.3227-4.7588-.53-6.6792-.4161a16.3111,16.3111,0,0,0-5.5984.4161,21.7723,21.7723,0,0,1-4.8845.109A7.9137,7.9137,0,0,1,290.4133,247.6812Z"/><path class="cls-3" d="M162.0192,286.1724l-.0034.0022C162.0258,286.2077,162.0305,286.2166,162.0192,286.1724Z"/><path class="cls-3" d="M159.0414,289.1931c-.0061-.0085-.0168-.0111-.0222-.0207C159.0326,289.2116,159.0385,289.211,159.0414,289.1931Z"/><path class="cls-3" d="M341.42,276.5953c.5918.0931-.5627.5956-2.0483,0a14.9622,14.9622,0,0,1-5.7893,0c-1.6246-.1185-2.2713.08-3.8284-.1609a18.6066,18.6066,0,0,0-5.167.1609c-1.6433.69-3.2827.2734-5.5938.2444-1.0366-.2462-4.4006.289-6.0734-.2444-1.1385-.0515-2.2674-.0892-3.3963-.1139s-2.258-.0362-3.396-.0353c-2.2763.0018-4.5891.0533-7.0124.1492-4.6336.4766-9.6919-.4259-15.408,0a153.88,153.88,0,0,1-16.4766,0c-5.2934.53-11.1694-.03-17.0109,0-5.8-.3374-11.3343-.0593-17.011,0-5.9024-.0353-10.7893.0528-16.4766,0-5.7251-.2356-10.4834.1711-15.4079,0-5.29.5055-9.501-.0729-13.805,0-4.1958-.4006-8.1579.1561-11.667,0a60.8246,60.8246,0,0,0-8.9956,0c-2.5652.0086-4.5366-.4753-5.789,0-1.105-.2064-1.9771.3494-2.0484,0,.041.4009-.3034,1.5355,0,1.9651-.5234,1.1628.2976,3.0737,0,4.3235a23.6912,23.6912,0,0,0-.0388,4.242c-.0273,1.1248.0774,1.9721.061,2.0672.2542.3451,1.1582-.17,2.0262-.0207,1.3335.1068,3.3044-.23,5.789,0,1.0662-.3323,1.94.4137,4.05-.0429,1.6-.0412,3.229-.4171,4.9455.0429,2.4951-.2615,3.8223-.4918,5.533,0,2.1765.4519,3.34-.3274,6.134,0a96.7894,96.7894,0,0,1,12.6792,0c4.4048.1245,9.0327-.3323,14.08,0,4.8992-.1146,9.627-.4961,15.061,0,5.21.1014,10.8167.0647,15.6211,0a134.187,134.187,0,0,1,15.7613,0c5.3259-.2163,10.1848.2278,15.4812,0,5.1789.3936,10.2048.0929,14.7807,0,4.2083.48,9.9644-.3737,13.66,0,2.2034.0906,4.3345.1673,6.3638.183,2.0439-.11,4.1006-.0967,5.7549-.183,1.57-.1643,3.8638.1329,5.3022.01,1.7454.3325,3.6123-.268,4.855-.01,1.4146-.4036,2.3115.2151,4.135.2127.7786-.0848,2.8528-.1593,3.6406-.2127,2.6441-.1355,3.2334-.2956,4.9737,0,1.8044.6134,1.8513.3471,1.7512,0-.6921.3833.2292-1.1539.0195-2.1039-.3518-1.079.1306-2.4658-.0195-4.1846.4016-2.0124-.2307-2.8624.1194-4.2666C341.0182,277.9223,341.9577,276.3618,341.42,276.5953Zm-4.6621,9.5771a9.4513,9.4513,0,0,1-4.7234,0c-.7126.2755-1.866-.34-3.1365-.1035-1.44.254-2.1133-.1055-4.2527.1035a7.1628,7.1628,0,0,0-4.53-.4267c-1.6883.58-2.9471.3335-5.1307.4267a14.7652,14.7652,0,0,1-5.395-.1167c-1.9819.0266-4.0881.092-6.1416.1167-4.1367-.1484-8.8012.2985-13.0176,0-5.0664-.1482-9.104-.264-14.104,0-4.8659-.2224-9.7021-.0192-14.7949,0-4.8406.0981-10.2641.457-15.0913,0-4.5737-.1683-9.9736-.0277-14.9924,0-4.8924-.043-9.3308.1225-14.4988,0-4.4683.0791-9.0718-1.025-13.61,0-4.1342-.15-8.2863-.2061-12.3264,0-3.8418.3778-7.6062-.1507-10.6477,0a13.2746,13.2746,0,0,0-5.279,0c-1.7984-.229-3.1287.1022-4.4949,0-1.4985-.0244-2.5413.4067-3.6658.01-1.09-.276-1.615.5091-2.6584-.01-1.5965-.4389-2.7254.3067-2.251.0022a7.77,7.77,0,0,1,.0034-3.2907,5.36,5.36,0,0,1,0-3.2886c.3677-.1649,1.0191.58,2.2476,0,1.1267-.1474,3.6545.002,6.3242,0,3.0986.2342,5.6262-.3345,9.7739,0,3.7927.4026,7.8584-.0634,12.5962,0,4.5322.2659,10.1018-.121,14.7915,0,5.1182-.1332,10.2581.1032,16.36,0,5.4954.2515,10.929.2725,17.3006,0,6.0071.02,11.9306,0,17.6137,0,5.8465-.12,11.5833-.0024,17.3,0,6.13.2544,11.0347-.1069,16.36,0,4.6862.1839,10.2439-.05,14.7917,0,1.1257-.11,2.2451-.2339,3.3289-.2775a12.4727,12.4727,0,0,1,3.1159.2053,45.6328,45.6328,0,0,1,6.1514.0722c1.9685.07,3.4687.5292,5.1746-.0833a10.4431,10.4431,0,0,1,4.5993.0833c1.728.402,3.365-.5787,3.6148-.0308,1.5393.0795,2.0791-.3687,2.7094.0308a6.706,6.706,0,0,0,2.2476,0c-.11.0966.0562,1.0033,0,3.2886-.5237.724-.2734,2.3452-.1052,3.04C337.9723,286.01,337.0868,286.7247,336.758,286.1724Z"/><path class="cls-3" d="M158.2966,135.7458c1.3281.6863.3025.6512,3.353,1.1544a4.1886,4.1886,0,0,0,3.28-1.36c.6858-.8734,1.6695-1.6186,1.36-3.28a3.96,3.96,0,0,0-1.36-3.28c-.8022-.6323-1.488-1.8062-3.28-1.56-.8355.1762-1.353-.1162-3.2761,1.56a4.78,4.78,0,0,0-1.5071,3.28C157.07,133.9658,157.247,134.9282,158.2966,135.7458Zm3.353-5.1256a1.5407,1.5407,0,0,1,1.64,1.64c.1758.8193-.8789,1.5287-1.64,1.64a1.4481,1.4481,0,0,1-1.64-1.64C159.8405,131.5985,160.8139,130.9046,161.65,130.62Z"/><path class="cls-3" d="M172.45,135.54a3.4284,3.4284,0,0,0,3.878,1.3605c1.8752-.0462,1.8938-.9411,2.969-1.3336.9028-.7963,1.073-1.8678,1.073-3.3069a3.7876,3.7876,0,0,0-1.3638-3.28c-.8633-.6945-2.02-1.7921-3.2761-1.36a3.1559,3.1559,0,0,0-3.28,1.36,3.7205,3.7205,0,0,0-1.36,3.28C171.1262,133.3284,171.4484,135.0861,172.45,135.54Zm3.28-4.92c.6872-.4053,1.5307.8008,1.64,1.64.2951.1835-1.179,1.7421-1.64,1.64-1.29.0536-1.9385-.7221-1.64-1.64A1.3027,1.3027,0,0,1,175.73,130.62Z"/><path class="cls-3" d="M186.52,135.54c.52,1.233,1.5,1.6922,3.28,1.36a3.9659,3.9659,0,0,0,3.28-1.36,4.4416,4.4416,0,0,0,1.36-3.28c.2417-.6822-.52-2.486-1.1894-3.27-.6731-.9479-1.9048-1.2275-3.3257-1.4516A3.5615,3.5615,0,0,0,186.52,128.98a4.3669,4.3669,0,0,0-1.36,3.28A3.6875,3.6875,0,0,0,186.52,135.54Zm1.64-3.28c.2715-1.0883.8865-1.8734,1.64-1.64a2.1321,2.1321,0,0,1,1.64,1.64c-.164,1.2713-.5949,2.0911-1.64,1.64C188.6589,134.0125,187.9518,132.787,188.16,132.26Z"/><path class="cls-3" d="M72.57,307.23c-1.3-1.68-2.82-1.96-5.49-2.28-2.03.06-3.25.77-5.49,2.28a8.0193,8.0193,0,0,0-2.27,5.49,14.5724,14.5724,0,0,0,2.27,5.48c1.34,1.6,3.23,1.93,5.49,2.28a28.6918,28.6918,0,0,0,5.49-2.28c1.72-.58,1.92-4.1,2.27-5.48C74.46,310.4,74.15,308.44,72.57,307.23Z"/><path class="cls-3" d="M126.59,318.2a9.5639,9.5639,0,0,0,5.49,2.28c2.16.34,3.9-.84,5.48-2.28a6.1306,6.1306,0,0,0,2.28-5.48,8.2993,8.2993,0,0,0-2.28-5.49c-1.48-2.01-2.64-2.17-5.48-2.28-2.41.02-3.34.43-5.49,2.28a11.5667,11.5667,0,0,0-2.16,2.49,2.5451,2.5451,0,0,0-.12,3A5.9024,5.9024,0,0,0,126.59,318.2Z"/><path class="cls-3" d="M121,273.98c-.22-1.08-1.65-2.88-2.54-4.49a58.1422,58.1422,0,0,0-3.64-5.91c-1.24-1.98-2.41-3.88-3.28-5.39-2.17-3.32-3.51-6.04-3.74-6.09.01.05-4.58.16-8.86,0H90.08v17.35c0,3.47-.31,6.38,0,6.07-.03.5,2.01.01,5.02.01,1.51,0,3.24.05,5.11.07a22.2929,22.2929,0,0,0,5.93-.05c2.39.76,4.41.12,5.92.02,1.68.33,3.47-.05,5.12,0,3.79-.11,4.85.99,5.02.01C121.84,275.95,121.56,275.41,121,273.98Zm-10.33-1.42c-1.74.09-3.82.48-5.56-.03-1.92.23-3.95-.1-5.87.01-3.52-.01-6.16-.01-6.16-.01V255.1H99.6c3.26,0,6.46.09,6.52,0,.03-.14,1.19,2.17,2.78,4.53a27.7312,27.7312,0,0,1,2.63,4.22,33.0176,33.0176,0,0,0,2.53,4.19c1.43,2.64,2.22,4.65,2.77,4.53C116.91,272.8,114.16,272.49,110.67,272.56Z"/><path class="cls-2" d="M116.83,272.57c.08.23-2.67-.08-6.16-.01-1.74.09-3.82.48-5.56-.03-1.92.23-3.95-.1-5.87.01-3.52-.01-6.16-.01-6.16-.01V255.1H99.6c3.26,0,6.46.09,6.52,0,.03-.14,1.19,2.17,2.78,4.53a27.7308,27.7308,0,0,1,2.63,4.22,33.0176,33.0176,0,0,0,2.53,4.19C115.49,270.68,116.28,272.69,116.83,272.57Z"/></g></svg>