<svg xmlns="http://www.w3.org/2000/svg" viewBox="0 0 450 450"><defs><style>.cls-1{fill:none;}.cls-2{fill:#1bdbdb;}.cls-3{fill:#111;}</style></defs><g id="Large"><rect class="cls-1" width="450" height="450"/><path class="cls-2" d="M216.9628,188.2762c-.09-.01-3.71-.17-3.59.32-1.12-.39-2,.21-2.63-.82a4.6988,4.6988,0,0,1-1.28-2.44,43.1582,43.1582,0,0,0-.49-5.48c-.45-2.94-.75-5.09-.5-5.48a3.4914,3.4914,0,0,1,3.26-3.91c-.36.12,3.4-.28,3.6-.33.19-.52.38,1.21.2,2.89.24,1.75.03,4.07.61,6.18a15.9535,15.9535,0,0,1,.58,6.3A7.3673,7.3673,0,0,0,216.9628,188.2762Z"/><path class="cls-2" d="M362.3229,147.1163c.17,1.24-1.18,1.61-1.75,1.75-1.03.06-1.3-.92-1.75-1.75.14-1.1.66-1.8,1.75-1.75C361.5729,144.8964,362.1728,146.7164,362.3229,147.1163Z"/><path class="cls-2" d="M372.8628,191.1363c-.51,1.64-.58,2.03-.94,3.39-.54.79-.57,2.12-.93,3.24.24,1.35-.48,2.02-1.02,3.2a10.9633,10.9633,0,0,1-1.44,3.16,22.9438,22.9438,0,0,1-1.44,3.07c-.41,1.12-.93,1.29-1.58,2.99a32.1155,32.1155,0,0,0-4.27,0c-1.14.07-2.86-.45-4.85-.04a25.4582,25.4582,0,0,0-6.16.04c-2.34-.5-4.77-.14-7.14.03-2.52.04-5.16.06-7.92-.03-1.4.06-2.76.06-4.12.04a11.5053,11.5053,0,0,1-4.09-.04,37.5075,37.5075,0,0,0-4.12,0c-1.5.13-2.94-.49-4.08,0a24.3327,24.3327,0,0,0-4.28-.16c-1.32.06-2.53.16-3.65.13-1.16-.07-2.12.35-3.53.11a13.7623,13.7623,0,0,1-3.6-.08c-2.13.3-4.47-.1-6.45-.07-1.85.07-3.64-.19-4.57.07-2.88-.59-3.69.52-4.27,0a8.7745,8.7745,0,0,1-4.22-2.06c-.62-1.73-2.38-2.94-1.75-4.98-.26-.11-.01-4.84,0-4.97a6.1,6.1,0,0,1,1.75-4.98,9.34,9.34,0,0,1,4.22-2.06c-.14-.56,1.99-.07,3.63,0,1.39-.36,2.74.12,4.29.12a22.05,22.05,0,0,0,5.28-.12c2.48.32,3.94-.29,6.4-.1,1.66.55,4.89.36,7.12.1a66.8279,66.8279,0,0,1,7.58.05c2.6-.02,5.25-.05,7.93-.05h7.87a11.88,11.88,0,0,0,3.86,0c1.06-.36,2.09-.09,3.77,0,1.38.32,2.16-.71,3.54-.04,1.44.09,2.34.01,3.49.03,2.29.03,4.5.06,6.49.01,2.33-.01,4.31-.06,5.41-.06a13.3259,13.3259,0,0,1,4.16.06C371.3828,190.7164,373.1728,190.9965,372.8628,191.1363Z"/><path class="cls-3" d="M177.3129,351.6964a.8315.8315,0,0,0-.12-.04C177.2028,351.7665,177.2429,351.7865,177.3129,351.6964Z"/><path class="cls-3" d="M217.2929,242.6964a25.3285,25.3285,0,0,1-3.8-2.71c-.77-.56-3.24-1.96-2.99-2.18-.22-.77-1.5-.88-2.14-1.84,0-.95-1.29-2.85-.93-6.03.18-1.27-.6-2.89-.43-5-.73-1.36.17-4-.26-5.52.95-2.1-.43-3.73.04-5.43-.28-1.59.35-2.82.44-4.73.84-.38,2.19.01,3.14-1.52.18-.68,1.45-2.38,1.27-3.52.91-.09-.07-2.78-.15-2.57-.56-.62-.84-2.28-1.39-2.83-.04-.06-1.83-1.35-3.01-.97a.3369.3369,0,0,0,.1-.04c-.13,0-1.99.46-1.77.19-.71-1.6-1.46-2.79-2.26-4.96a6.7247,6.7247,0,0,1-2.8-4.68c-.5-.06,1.98,0,3.35-.3,2.19.4,3.35-.11,3.35-.3a6.65,6.65,0,0,0,1.77,2.32c.97.93,2.69.91,4.21,1.54.03-.5.4.37.61-.03a11.0379,11.0379,0,0,1,3.29-.3c1.16.27,3.21-.36,3.29-.29a4.29,4.29,0,0,1-.15-1.62,25.9468,25.9468,0,0,0-.41-4.63,22.5288,22.5288,0,0,0-.38-5.81,20.3232,20.3232,0,0,1-.67-5.8,29.392,29.392,0,0,0-.4-4.47,1.8058,1.8058,0,0,1-.18-1.77,12.5251,12.5251,0,0,1-3.28.28c-1.76.24-3.29.29-3.29.3a5.7869,5.7869,0,0,0-4,1.84c-1.02,1.44-1.92,2.25-1.94,3.88a16.93,16.93,0,0,0-2.73.37c-1.79.55-3.44.15-5.36.35a31.1428,31.1428,0,0,1-5.58.56c-1.71.18-2.29-.29-2.49.12l.01.02a.0363.0363,0,0,0-.03.01c-.12.05-1.92.17-2.46.22,0,.04-.19.12-.14.01h-.01a27.2955,27.2955,0,0,0-2.56-1.59c-.15-.09-.31-.17-.46-.26a50.9551,50.9551,0,0,0-5.41-2.63c-.15.13-.27-.04-.51-.21a3.9229,3.9229,0,0,0-2.64-1.04c.02-.05-.08-.14-.2-.01-.2-.15-.55-.59-.91-.28-.74-.51-.75.05-1.49-.45-.24.04-.23-.23-.61-.15a2.17,2.17,0,0,0-1.85-.46c.42.31.25.23-.19-.04a38.1486,38.1486,0,0,0-8.34-1.11c-2.97.15-5.86.07-8.34.32-1.32.29-2.67.56-4.04.85a31.1518,31.1518,0,0,0-4.16.9,11.12,11.12,0,0,0-4.01,1.65c-1.31.55-2.92,1.48-3.88,1.5a39.509,39.509,0,0,0-4.3,2.42c-1.13,1.2-2.5,1.72-3.98,2.8a33.1994,33.1994,0,0,1-3.63,3.19,15.8684,15.8684,0,0,0-3.37,3.44,20.9767,20.9767,0,0,0-2.79,3.96c-.72.88-1.77,3.07-2.77,3.92.25,2.13-1.38,2.72-1.95,4.37-.77,1.28-1.3,3.21-2.03,4.57a2.2178,2.2178,0,0,1-.64,2.13c-.88.37.09,1.03-.55,2.11a4.24,4.24,0,0,1-.37,1.58c-.28-.92-.82.14-1.29.15-1.69.13-1.26.74-2.93,1.48a3.4785,3.4785,0,0,0-1.1,3.11c-.48.08-.23,3.74.22,3.76-.9,1.35-.36,1.46,1.35,2.63.59-.9,1.87,1.47,2.3.81.85-.6.68-.32.52-.1-.11-.14-.09-.06-.03.05-.01,0-.01,0,0,.01-.09.11-.13.17.03.05.07.1.16.18.22.11a4.3753,4.3753,0,0,0-.28,2.61,9.7578,9.7578,0,0,1,.87,3.88c-.16,1.38.62,3.11.51,4.49-.04,1.65.59,3.04,1.06,5.42-.07,1.85,1.26,4.63,1.45,5.87.19,1.48,1.51,3.58,1.74,5.29a36.0987,36.0987,0,0,0,2.01,4.61c.66,1.4,1.92,2.18,2.34,4.16,1,.99,1.75,2.62,2.68,3.42a24.1457,24.1457,0,0,1,2.74,2.86,18.095,18.095,0,0,1-2,2.04,13.7527,13.7527,0,0,1-2.17,1.99,14.2969,14.2969,0,0,0-2.43,2.33,19.0389,19.0389,0,0,1-4.53,4.17c-1.26,1.27-1.35,2.53-2.14,2.12-1.41.02-3.08.39-3.54.39-.86.4-1.26.27-3.29.44-1.26-.21-2.47.64-3.3.88a11.9931,11.9931,0,0,1-3.05,1.15,5.9049,5.9049,0,0,0-3.23,1.15c-1.11.73-2.44,1-2.84,1.4-1.45,1.15-3.99,1.51-4.89,2.68a16.1326,16.1326,0,0,0-4.57,3.14,22.8112,22.8112,0,0,0-3.79,2.76,9.48,9.48,0,0,0-2.82,2.38c-.97.88-1.88,1.78-2.54,2.48a9.9243,9.9243,0,0,1-1.96,2.11c.41-.17,2.17,2.07,2.3,1.91-.03.42.81-.86,1.87-2,.12-.52,1.1-.57,2.05-2.04a9.6392,9.6392,0,0,0,3.05-2.58c.74-.47,2.36-1.8,3.62-2.77,1.35-1.29,2.91-1.45,4.33-2.84,1.51-.83,3.57-1.72,5.02-2.58,1.54-.79,4.24-1.73,5.41-2.38,1.16-.03,1.78-.87,2.95-.98.61.39,2.04-.84,3.17-.7a12.2346,12.2346,0,0,1,3.41-.67c1.04-.37,2.71-.69,2.98-.33.5-.75,2.08.05,3.36-.1,1.26-.65,2.56.76,3.57.13,1.5.25,2.77.08,3.61.51a32.2843,32.2843,0,0,0,3.7.7,24.9093,24.9093,0,0,1,3.79,1.12,30.5409,30.5409,0,0,0,3.85,1.47c1.4.52,3.11,1.98,4,1.98,1.01.49,2.71,1.72,3.93,2.21,1.15.56,1.56,1.33,2.83,1.89a16.6359,16.6359,0,0,0,2.72,2.19,19.0989,19.0989,0,0,0,2.5,2.62c.69.32,1.52,1.52,2.84,2.7.94.66,1.64,1.96,2.4,2.54a6.6389,6.6389,0,0,1,2.12,2.97,6.879,6.879,0,0,1,2.14,2.8,12.6615,12.6615,0,0,1,1.49,3.45c.14,1.08,1.37,2.34,1.58,3.33.52.55.4,1.96,1.78,3.24a9.9389,9.9389,0,0,0,1.27,3.16c.52,1.26.09,2.24,1.17,3.02.25,1.46.54,2.13.82,3.44a11.2244,11.2244,0,0,1,1.05,2.88,14.3692,14.3692,0,0,1,1.11,3.02,5.4189,5.4189,0,0,1,.85,3.01c1.11,2.02,1.89,4.06,1.67,5.66a31.4617,31.4617,0,0,0,.58,4.92c-.39,2.11-.19,3.22.36,4.23.49.79.17,2.29.71,3.21.61,1.98-.13,3.39.28,2.93.17.3,2.19-.33,2.88-.23a19.17,19.17,0,0,0-.28-4.04c-.09-.97-.34-2.43-.62-4.1.38-1.61-.75-3.7-.93-5.75-.91-.56-.76-1.99-.83-3.2.26-1.08-.59-2.39-.79-3.26a9.69,9.69,0,0,0-.7-3.59c-.16-1.17-.75-2.19-1.06-3.52-.88-1.36-.79-3.14-1.34-4.13a9.4425,9.4425,0,0,0-1.53-4.16c-.32-1.18-1.43-2.27-1.61-4.55-.98-1.28-1.18-2.71-2.32-4.21-.13-1,.42-2.52.2-3.08a18.8694,18.8694,0,0,0,.38-4.17c.32-.96.56-2.92,1.53-4.02.88-1.71.7-1.63,1.84-1.83.28.09,1.6-.38,2.84-.57a10.5142,10.5142,0,0,1,4.37-.49,22.3938,22.3938,0,0,0,4.26-.67,8.3214,8.3214,0,0,1,4.53-.42c2.61.09,3.49-.01,4.67-.86a31.6375,31.6375,0,0,1,4.4-1.39c1.35-.82,2.71-1.01,3.76-1.83,1.04.01,2.03-1.4,3.21-2.43.81-.79,1.22-2.3,1.9-3.45a7.5887,7.5887,0,0,0,.59-3.72c.21-1.22.66-2.09.08-3.31-.39-1.33.23-2.32-.13-2.97a19.6364,19.6364,0,0,1,.2-5.24,4.1238,4.1238,0,0,1,.82-3.93c.91-1.41,1.53-1.63,1.36-3.21.99-1.76,1.12-2.65,4.22-3.94a3.3694,3.3694,0,0,1,2.32-1.45c1.17-.28,2.49.2,3.98-.49a4.8926,4.8926,0,0,1,3.51-1.05c.81-.05,1.66-1.59,2.25-2.58.22-1.57-.84-3.43-2.28-4.95C219.833,244.0462,218.6528,243.9564,217.2929,242.6964Zm-5.56-72.23c-.36.12,3.4-.28,3.6-.33.19-.52.38,1.21.2,2.89.24,1.75.03,4.07.61,6.18a15.95,15.95,0,0,1,.58,6.3,7.3631,7.3631,0,0,0,.24,2.77c-.09-.01-3.71-.17-3.59.32-1.12-.39-2,.21-2.63-.82a4.6974,4.6974,0,0,1-1.28-2.44,43.2176,43.2176,0,0,0-.49-5.48c-.45-2.94-.75-5.09-.5-5.48A3.4913,3.4913,0,0,1,211.7329,170.4664Zm-22.26,5.65a4.67,4.67,0,0,0-.07-1.48C189.5629,174.8663,189.853,175.9464,189.4729,176.1163Zm-75.45,29.41c.98-1.41.2-1.45.65-2.48.54-.7-.5-.3.49-1.58,1.28-1.65,1.6-3.98,2.3-5.56a48.4811,48.4811,0,0,1,2.75-4.99c.77-1.8,2.47-3.22,3.39-4.54a26.6478,26.6478,0,0,1,3.86-4.15c1.57-1.23,2.62-2.35,4.31-3.57a13.52,13.52,0,0,1,4.69-3.03,9.398,9.398,0,0,0,3.93-1.97,11.7051,11.7051,0,0,0,3.68-1.47,16.3313,16.3313,0,0,0,3.95-1.12c1.55-.32,2.96-.59,4.2-.92,1.71-.1,3.05-.21,4.35-.31s2.56-.18,4.12-.22c2.55-.2,5.79,1.17,8.61,1.06-.38-.32.29-.46.13.02.06-.34.89-.31,1.76.44-.06.27.31.24.56.14.37.39.79.86,1.29.4-.11.1.77.36.94.31-.09-.05.27-.31.03-.02,0,.01,0,.02-.02.02.02.02.05.02.1.01,1.26-.07,1.47.71,2.7,1,.33-.72.15-.06.46.19.92.38,1.82.79,2.7,1.22.05.02.09.05.14.07.85.42,1.68.87,2.49,1.34.12.07.24.14.36.2.95.34,1.34,1.08,2.5,1.58.92,1.1,2.32,1.46,2.96,2.17a.4564.4564,0,0,0,.22.14c.6-.26.35.13,0,0a.0363.0363,0,0,0-.03.01,7.2968,7.2968,0,0,1,2.47,2.21c.69,1.17,1.86,1.54,2.49,2.44a4.0569,4.0569,0,0,1,2.36,2.45,7.46,7.46,0,0,1,1.88,2.9,25.507,25.507,0,0,1,2.46,4.07c.4.83,1.56,3.36,2.04,4.28.68.02-.9.17-2.48.22-1.1.73-1.64.37-2.89.26-.95.47-2.03.11-3.83.34a24.8981,24.8981,0,0,0-4.71.39c-1.54.22-3.33.32-5.19.48-1.89-.41-3.67.63-5.81.52-2.42-.38-3.65.35-6.21.55a51.0773,51.0773,0,0,1-6.54.61c-2.14.4-4.9.07-6.54.55-2.04.12-2.48.21-4.14.36-1.63-.69-1.96.79-4.11.37-1.62-.14-2.72-.47-3.93.24-1.07.5-3.47-.01-4.05.46a20.6111,20.6111,0,0,0-3.83.31,12.33,12.33,0,0,1-3.54.16,5.7419,5.7419,0,0,0-3.48.01c-.89-.17-2.16.4-3.31.78-1.7.14-4.06.39-5.7.68-1.9.61-3.2.86-4.32.2a5.618,5.618,0,0,0-3.79.34C114.1628,205.4264,114.2629,205.2865,114.0229,205.5262Zm-3.76,9.25c-.05.09-.12.22-.23.4-.52.35.12.04-.62.1a2.3956,2.3956,0,0,0-.71-.44c.01.04.03.09.04.14.04.04.08.09.15.16a2.2008,2.2008,0,0,1,.08.38,2.82,2.82,0,0,1-.23-.54c-.09-.11-.09-.14-.04-.14a.9365.9365,0,0,1-.06-.18c.31-.05.3-3.58-.22-3.72-.08-1.18.47-1.24,1.3-1.46-.41-.09,1.13-.07,3.35-.3.97-.07,2.15-.07,3.61-.3,1.27.24,2.98-.25,5.36-.49,1.78-1.3,3.94-.76,6.15-.34,1.1-.07,1.9-.26,3.3-.31.67.29,2.46-.34,3.54-.5,1.17-.29,2.24-.28,3.67-.6,1.38-.15,2.4-.94,3.83-.07a10.9353,10.9353,0,0,1,4.1-.49,5.87,5.87,0,0,0,3.8-.21c2.01-.55,5.44-.45,6.93-.59,2.39-.2,4.66-.5,6.59-.6a38.1032,38.1032,0,0,1,6.73-.82c2.38-.07,4.67-.32,6.41-.35,1.45-.12,2.79-.27,4.13-.41,1.33-.14,2.32-.18,4.06-.31a13.2108,13.2108,0,0,0,3.67-.25,6.9243,6.9243,0,0,1,3.48-.38c2.55.53,3.59-.11,6.12-.54a13.1205,13.1205,0,0,0,4.7-.42c2.76-.41,4.07-1.02,4.1-.36.27-.59.67.32.78.25.59.05.24.62.36.73-.32.08-.47,3.4.14,2.57.24.66-.1,1.31-.47,1.32.27.39.03.33-.72.47-.5-.32-.95.55-4.09.37-1.18.38-3.23-.89-4.69.43-1.14-.39-4.16.1-6.1.56-.99.08-2.13.43-3.32.51a14.1531,14.1531,0,0,0-3.84.04c-1.37.16-2.44-.17-3.94.37a16.3077,16.3077,0,0,1-4.21.48c-1.1.02-2.15.1-3.22.2-1.06.09-2.13.19-3.29.24-2.18.47-4.3-.31-6.6.76-2.18-.04-4.34.48-6.7.61a64.3733,64.3733,0,0,0-6.79.62c-1.24-.16-1.98.14-3.98.44-1.47.38-2.18.05-3.9.29a11.3266,11.3266,0,0,1-3.72.44c-1.63.11-2.79.11-3.76.24-1.64.03-2.54.22-3.65.3a20.4246,20.4246,0,0,0-3.29.18c-1.7-.5-3.86.25-6.02.71-1.79.81-2.77.48-4.65.85-1.98-.2-2.34.4-4.31-.03A4.9992,4.9992,0,0,0,110.2629,214.7762Zm82.75-4.27c0,.36-.08.49-.27.5C192.833,210.8363,192.9228,210.6664,193.0129,210.5062Zm22.97,40.22a34.4156,34.4156,0,0,1-3.84.57,3.6929,3.6929,0,0,0-3.32,1.67c-.45.51-2.03,1.1-2.59,1.92a8.7176,8.7176,0,0,0-2.46,2.65c-1.43.8-1.32,1.75-1.81,3.16-.45,1.31-.45,2.94-.96,4.91.07,2.25-.62,3.57-.77,5.87.15,1.78-.27,2.26-.03,3.23.2,1.31.29,2.37.47,3.69.68.78-.67,3.1-.95,3.91a5.6718,5.6718,0,0,1-2.97,2.87c-1.43.62-2.19,1.84-4.44,2.01-.55.56-2.8.6-5.32,1.35a35.3759,35.3759,0,0,1-5.73.88c-1.81.7-3.73.21-5.23.59-2.22-.34-2.48.44-4.73.54-2.08-.38-1.61.91-3.22.69a5.3321,5.3321,0,0,0-2.5,1.47c-.73.26-1.5,2.02-1.65,2.93-.21,1.19-.94,1.77-1.09,2.96.01.81-.47,2.48-.47,3.47-.27-1.67-1.62-2.53-2.41-3.83-1.22-1.64-2.43-1.7-2.71-3.63-.46-1.61-1.8-2.64-2.87-3.61-1.17-.99-2.21-2.3-3.34-3.16a7.3763,7.3763,0,0,0-3.42-3.07c-1.13-.83-2.87-1.88-3.99-2.64-2.24-.7-2.65-1.73-4.75-2.76-2.05-.38-2.99-1.54-4.75-2.13-1.78-.65-3.44-1.38-4.58-1.67-1.27-.35-2.97-.74-4.52-1.09-1.67.07-2.47-.44-4.34-.61-.69.69-3.08-.41-4.24-.34a6.97,6.97,0,0,1,1.72-1.79,30.2869,30.2869,0,0,0,3.94-3.59c.91-1.77,1.98-3.3,3.87-3.75,1.03-.95,1.89-1.44,1.83-1.62a48.6768,48.6768,0,0,1,5.39,2.22,16.9443,16.9443,0,0,0,5.41.74c.59-.47,1.91-.49,3.47-.33a13.91,13.91,0,0,1,3.4-.86c1.2-.27,2.41-.21,3.51-1.42.72,0,1.77-2.06,3.37-2.13.83-1.68,2.14-1.09,3.44-2.66,1.65-1.5,1.39-2.4,3.44-3.25,1.54-1.7,2.37-3.11,3.43-3.85a50.0565,50.0565,0,0,1,3.43-4.43.68.68,0,0,1,.16.06.5389.5389,0,0,1-.07-.19,14.88,14.88,0,0,0,.11-4.03c-.44-.77-.96-.97-2.21-2.01-1.1.1-2.49-.92-3.96-.96-1.03,0-1.76-.75-2.35-1.79-.72-1.73-1.86-2.94-.96-4.82-.55-1.98.3-3.46,1.31-5.21.56-1.25.54-2.24,2.74-2.6a12.005,12.005,0,0,1,3.18-.46c1.59.11,2.35,1.37,2.98,1.21a5.7,5.7,0,0,1,2,3.04c-.15-.27-.92.2.06.28.49,2.59,1.48,3.13,2.02,3.34a2.3863,2.3863,0,0,0,2.36.68c1.1.61,2.27-.33,3.16-.82.62.27,2.03-1.83,3.07-1.96a11.4681,11.4681,0,0,0,3.63-2.89c1.03-1.96,2.13-1.82,3.35-3.62a11.9435,11.9435,0,0,1,3.52-3.73c.69-1.96,1.52-2.47,2.6-3.92a18.7365,18.7365,0,0,1,2.23-3.81c.55-1.54,1.51-2.9,1.42-2.4.1-.12,1.68-.08,3.86-.36a9.4188,9.4188,0,0,0,3.84-.24.448.448,0,0,0,.01-.11c.05.04.05.07-.01.11a36.6634,36.6634,0,0,0-.36,4.99c.46,1.12-.13,4.37,0,5.86a18.762,18.762,0,0,0,.3,5.94,34.3281,34.3281,0,0,0,.52,5.33,17.6241,17.6241,0,0,1,.65,4.07c.74,1.29.87,1.98.72,2.02.78.08,1.77,1.05,2.44,2.18,1.45,1.38,2.2,1.41,3.33,2.44,1.44.27,3.19.7,4.8,3.61,1.1,1.72,2.38,1.95,2.79,3.36C220.2729,250.4064,219.1328,249.5262,215.9829,250.7264Z"/><path class="cls-3" d="M357.2129,150.4764a12.1614,12.1614,0,0,0,3.36,1.39c1.29.16,3.04-.46,3.35-1.39.99-.71,1.24-1.88,1.4-3.36-.16-.89-1.43-2.33-1.4-3.35-1.2-.66-1.87-1.51-3.35-1.4a4.8262,4.8262,0,0,0-3.36,1.4,5.8483,5.8483,0,0,0-1.39,3.35C356.0029,148.7865,356.0429,149.9764,357.2129,150.4764Zm3.36-5.11c1-.47,1.6,1.35,1.75,1.75.17,1.24-1.18,1.61-1.75,1.75-1.03.06-1.3-.92-1.75-1.75C358.9629,146.0165,359.4829,145.3163,360.573,145.3663Z"/><path class="cls-3" d="M377.6428,169.9664c-.1-1.19-.35-3.39-.4-4.5a27.47,27.47,0,0,1-.66-4.43c-.24-1.17-.56-2.54-.9-4.33a18.2836,18.2836,0,0,0-1.14-4.24,18.5055,18.5055,0,0,0-1.39-4.15c-.29-1.14-1.84-2.55-1.68-4.1-1.23-1.45-.44-2.33-1.76-3.85a15.9843,15.9843,0,0,0-2.18-3.89c-.74-1.29-1.46-2.54-2.1-3.57a15.38,15.38,0,0,0-3.09-4.41c-1.67-1.36-1.87-3.04-3.35-4.13-1.13-1.55-2.59-2.61-3.65-3.9a20.7756,20.7756,0,0,0-3.9-3.65c-1.15-1-2.6-2.5-4.03-3.56a38.3556,38.3556,0,0,0-4.51-2.88c-2.76-1.94-6.26-3.44-9.4-5.22-3.23-1.68-6.31-2.33-10.16-3.88-1.74-.53-3.55-1.02-5.36-1.44a50.67,50.67,0,0,0-5.42-.97c-3.45-.86-7.48-.77-11.29-.84a26.5111,26.5111,0,0,1-4.56.14,15.0136,15.0136,0,0,0-4.5.4c-1.68-.31-2.72.33-4.52.79-1.45.12-2.53.81-4.24.77a8.5189,8.5189,0,0,1-4.48,1.09,9.5532,9.5532,0,0,0-3.91,1.44,83.7212,83.7212,0,0,0-7.95,3.44,67.4657,67.4657,0,0,1-7.46,4.28,11.7146,11.7146,0,0,1-4.41,3.03,44.4707,44.4707,0,0,0-4.13,3.41c-2.77,2.49-4.98,4.95-7.55,7.55a87.2232,87.2232,0,0,0-6.44,8.54,38.2,38.2,0,0,0-2.77,4.6c-.88,1.57-1.69,3.17-2.45,4.8a94.0866,94.0866,0,0,0-3.88,10.16c-.84,3.76-1.8,7.12-2.41,10.78-.23,2.15-.31,3.45-.66,5.52a20.0286,20.0286,0,0,0-.18,5.76,21.3964,21.3964,0,0,1,.28,5.78c.16,1.96.42,3.38.56,5.51a16.3513,16.3513,0,0,1,1.04,5.35c.54,1.98.92,3.13,1.37,5.43.53,1.75,1.11,3.47,1.76,5.17.65,1.69,1.35,3.35,2.12,4.99a64.1211,64.1211,0,0,0,5.22,9.4c1.91,2.82,3.8,6.27,6.44,8.54,1.39,1.38,2.5,2.66,3.65,3.9a28.3149,28.3149,0,0,0,3.9,3.65,22.2359,22.2359,0,0,0,4.08,3.37,23.9633,23.9633,0,0,0,4.46,3.07,19.3605,19.3605,0,0,1,4.66,2.42c1.43,1.14,3.31,1.65,4.74,2.8a24.3142,24.3142,0,0,0,4.99,2.12,21.247,21.247,0,0,0,5.16,1.76c2.26.81,4.69.86,7.13,1.78,2.79.46,4.57.7,7.37,1.09,1.24.13,2.5.22,3.76.28a28.89,28.89,0,0,1,3.81.09c4.22-.35,8.03-1.1,11.92-.92,4.26-.96,8-1.69,11.34-2.69a26.03,26.03,0,0,0,5.52-1.52c1.55-.87,3.72-1.55,5.11-2.79,1.96-.97,3.23-1.51,5.09-2.53,1.62-.98,3.08-2.1,4.67-3.26,2.55-1.8,4.66-3.85,7.38-5.85,1.04-.98,2.04-2.05,3.1-3.18,1.07-1.12,2.19-2.31,3.5-3.52,1.05-.83,1.86-2.28,3.02-3.56a42.929,42.929,0,0,1,2.73-3.9,32.3009,32.3009,0,0,1,2.58-4.06c.61-1.72,1.96-2.44,2.23-4.09a23.5076,23.5076,0,0,1,1.36-2.78c.21-1.22.84-1.67,1.28-2.99a8.3224,8.3224,0,0,0,1.27-2.87c.41-1.23.89-1.63.9-3.15a14.4373,14.4373,0,0,1,.87-3.16c.35-1.18.46-2,.8-3.07.54.48.72-.22.31,0,.14-.11-.5-1.73,0-1.39a9.3692,9.3692,0,0,0,.71-3.61,12.7727,12.7727,0,0,0,.43-3.89,29.801,29.801,0,0,0,.31-3.81c-.54-1.53-.09-2.58.07-3.91C378.2129,173.6764,377.5629,171.8763,377.6428,169.9664Zm-96.6-58.11a15.7886,15.7886,0,0,1,3.25.66,9.0016,9.0016,0,0,1,2.66,1.8c1.79,1.07,1.12,2.22,1.8,2.66-.02,1.24.61,1.95.66,3.25a16.17,16.17,0,0,0-.57,3.45c-1.17,1.1-.59,1.67-1.89,2.47-1.01.59-2.09,2.04-2.59,2.04-1.66-.52-1.78.15-3.32.41-.82-.33-3.19-.14-3.26-.66-1.26-.96-1.91-.25-2.66-1.79-1.18-1.48-2.36-1.65-1.9-2.77a13.6737,13.6737,0,0,1-.56-3.15c-.26-.9.8-2.72.68-3.26a8.0364,8.0364,0,0,0,1.78-2.65c.46-.17.86-1.38,2.61-1.86C278.6928,111.9064,279.2329,112.3563,281.0429,111.8563Zm54.4,18.71c-.05-.02-.09-.05-.13-.07a.62.62,0,0,1-.17-.12,1.4505,1.4505,0,0,1-.26-.4,1.384,1.384,0,0,0-.82-.79.4308.4308,0,0,1-.21-.12c-.43-.45-.77-.83-1.08-1.18a.7262.7262,0,0,1-.17-.34,1.8832,1.8832,0,0,0-.52-.78l-.18-.18a.2835.2835,0,0,1-.04-.32c.02-.05.04-.11.2-.13.08,0,.17-.01.27-.02.14-.01.27-.03.41-.03a.8056.8056,0,0,1,.32.07,1.8021,1.8021,0,0,0,1.19.08,1.071,1.071,0,0,1,.56.01,2.2448,2.2448,0,0,0,.28.05,2.941,2.941,0,0,1,.79.26.7758.7758,0,0,0,.42.07h.06q.42-.015.87-.06a1.4644,1.4644,0,0,1,.59.03.9839.9839,0,0,0,.75-.05.9176.9176,0,0,0,.37-.65,7.1055,7.1055,0,0,0,.12-.97,1.8158,1.8158,0,0,1,.14-.72,2.2348,2.2348,0,0,0,.13-1.24,2.2576,2.2576,0,0,0-.01-.26,13.0683,13.0683,0,0,1-.01-1.41c0-.13.28-.38.47-.38a.6064.6064,0,0,1,.52.24,7.4681,7.4681,0,0,1,.41.67l.09.14c.15.26.29.51.44.76l.2.36a.3071.3071,0,0,0,.05.07c0,.01.01.03.02.03a2.2715,2.2715,0,0,0,.71,1,1.0027,1.0027,0,0,1,.31.56,1.7024,1.7024,0,0,0,.76,1.05l.07.05a.6157.6157,0,0,0,.76.01c.06-.05.12-.09.19-.14a2.339,2.339,0,0,0,.81-.76c.08-.08.17-.17.26-.25a4.745,4.745,0,0,1,.94-.76,1.7088,1.7088,0,0,0,.61-.54.7378.7378,0,0,1,.6-.41.8751.8751,0,0,0,.26-.04.4253.4253,0,0,1,.11-.02c.28-.05.31.11.33.19a3.1508,3.1508,0,0,1,.16,1.43c-.03.19-.05.38-.07.56a3.1785,3.1785,0,0,1-.12.77.9223.9223,0,0,0,0,.44,1.217,1.217,0,0,1-.08.74,1.0537,1.0537,0,0,0-.08.25c-.01.04-.02.09-.03.13a1.5806,1.5806,0,0,0,.18,1.35.8.8,0,0,0,.84.47,2.65,2.65,0,0,1,1.12.15,3.0261,3.0261,0,0,0,1.31.12.8453.8453,0,0,1,.41.07,2.8531,2.8531,0,0,0,1.31.19c.36-.05.54.4.58.49a.4957.4957,0,0,1-.28.53.9078.9078,0,0,1-.22.1c-.06.02-.12.05-.18.07l-.08.04a1.0107,1.0107,0,0,0-.35.19c-.27.22-.54.46-.86.75a1.5121,1.5121,0,0,1-.56.34,2.5109,2.5109,0,0,0-1.08.64h-15.6c.16-.12.32-.24.48-.37l.33-.25c.01-.01.03-.02.05-.04l.09-.06a1.0254,1.0254,0,0,0,.44-.79v-.05A1.0485,1.0485,0,0,0,335.4428,130.5663Zm-86.66,27.47c.38.49-.09.68-.44.34-.33.51-1.39,1.15-1.39,1.33.11.19.71.96,1.28,1.01a6.9633,6.9633,0,0,1,1.85,1.35c.53.12.32.16.95.72a3.1906,3.1906,0,0,0,2.39,1.49c0-.04.38-.12.71.24.12.07-.18.67.58,1.07.14.24-.39.03.17.4-.22.7.18.57-.43.64-.38-.35-.38.37-.72.12-.18-.49-.63.03-.57-.36-.01.09-.39-.21-.19-.14-1.14-.33-.77-1.14-2.28-1.58h-.01c-.04,0-.39-.13-.25-.2-.56-.31-.4-.06-.42-.31.02-.4-.17-.06-.34-.22-.02-.36-.89-.68-1.28-.74-.49-.33-1.62-1.72-1.85-1.32-.25.11.26,1.61-.2,2.56-.22.81.21,1.59-.13,2.5-.64.13-.37.99-.05,1.1.08.11-.04.79.06.38,0,.02.01.03.02.05.05.46.21.56-.01.68-.25.52-.09.76-.17,1.11.51.02-.39.97-.15,1.56.1.47-.25.83-.38.73-.17-.23-.24-.11-.2.11a.56.56,0,0,0-.58.27c-.21-.02-.1-.11-.07-.13a2.7634,2.7634,0,0,0-.32.14c-.42-.45-.2-.12-.18-.42-.42-.22.01-.98-.2-1.18.31.04-.2-.56-.13-.71a.39.39,0,0,0-.07-.18l.04-.04a6.6329,6.6329,0,0,1,.05-2.61c.06.19.12-.21.11-.4.14-.05.3-.14-.09-.4.33.01.37-1.22.06-1.22-.05-.89.11-1.44.07-1.61.33.12-.03-2.1-.06-2.1-.27-.42-.54.93-1.13.66a1.9847,1.9847,0,0,0-.81.27c-.76.36-.99,1.29-1.7,1.76-.25.95-1.14.85-1.32,1.02-.29-.12-1.37.86-1.73,1.06.2.54-.77-.1-.86.24-.01.17-.35.36-.34-.25-.15-.83-.3-1.46.22-1.62a2.7511,2.7511,0,0,1,1.87-1.41c.23-.46.11-.5.95-.53.3-.21.26-.22.31-.22a13.8359,13.8359,0,0,1,1.28-1.12c-.4.42.89-.39.78-.67-.25-.4,1.78-1.02,1.6-1.3.16-.7-1.32-1.08-1.51-1.28-.39-.04.08-.08-.44-.4-.04-.32-.27-.22-.26-.23-.12-.32-.22.01-.19-.19-.01-.45-.59-1.33-.94-1.02-.59-.17-.75-1.07-1.36-1.05a3.2619,3.2619,0,0,1-.95-.63c-.37-.37-.48-.59-.67-.54a13.27,13.27,0,0,0-1.18-.9c-.38-.49-.6-.11-.95-.52-.66.34-.57.1-.55-.42.2-.04-.16-.24.12-.67.06-.55.01-.11.44-.55a2.5521,2.5521,0,0,1,.73.18c-.19.23.04.36.14.24,0,.2.3.14.33.06.61-.19.48-.26.28.15a.1031.1031,0,0,0,.07.05c.8.35.67.94,1.11.55.45.13,1.21.81,1.77,1.04.5.44,1.85,1.97,2.51,2,.3.35,1.66,1.96,2.22,1.08.04-.43.22-3.51.25-3.53.02-.83.57-1.79-.23-2.19a.6781.6781,0,0,0-.22-.14.81.81,0,0,0,.2-.47c-.07-.07-.19-.47.11-.52a1.6817,1.6817,0,0,1,.07-.19.0368.0368,0,0,1-.03.01c-.12-.34-.03-.51.05-.53-.32-.26.06-.61.29-.83-.35-.52.45-.6.6-.78.75-.88.42.07.99.13a1.92,1.92,0,0,0,.23.21.6979.6979,0,0,0-.1.04c-.2.05.27.15.03.69a2.62,2.62,0,0,0-.1,2.45c-.63-.02-.07.66-.05,1.1.24.18-.04.01,0,.26-.11.64-.25,1,.01.64.49.23-.1-.02,0,.83,0,1.05-.16,1.58.23,2.05.59.61-.61.45.36,1.03a4.2407,4.2407,0,0,0,2.07-1.7,14.355,14.355,0,0,1,2.75-1.77c.85-.1.3-.83,1.69-.89.23.1.83-.44.56-.45a.6882.6882,0,0,1,.16-.13c-.01,0-.01-.01-.01-.02.05-.19.35-.04.29-.14.07.06.16.01.21-.07.1.17.4-.03.48-.17-.06.37.2.47.53.47.8.7.41,1.61-.75,1.91-.38.27-.45.06-.45-.05-.01.06-.03.16-.06.32-.93.04-1.2,1.02-1.53,1.04-.37-.22-.07.45-.49.37a5.27,5.27,0,0,0-2.2,1.4,1.6086,1.6086,0,0,1-.9.7C248.9528,157.7362,248.323,157.8263,248.7829,158.0365Zm1.25,43.12a2.8133,2.8133,0,0,0-1.79,1.71c-.06.29-1.61,1.02-1.75.8-.27.36-.23-.1-.66-.15a3.18,3.18,0,0,0-1.91-.43.99.99,0,0,1-.83-.36c-.38-.44-.75-.87-1.15-1.28a2.9805,2.9805,0,0,1-.83-2.1c0-.09-.01-.17-.01-.32a1.93,1.93,0,0,1,.21-1.27c.31-.38.35-.4.13-.4.04-1.1.58-1.3,1.61-2.02.27-.1.51-.65.84-.59-.02-.75.5-.2.93-.41,1.36-.15,1.2-.59,2.43.23a1.4791,1.4791,0,0,0,1.6.63c.39.45.76.65.65.64-.09.84.53.44.48.68a3.9543,3.9543,0,0,1,.34.98c.19-.09.43.07.03.43.99,1.17.18,1.31.13,2.35C250.5629,200.8763,250.0129,200.5462,250.0329,201.1564Zm18.14-45.93a34.21,34.21,0,0,1,0,3.64,14.68,14.68,0,0,1,.1,4.11c.08,1.6-.09,3.6-.1,5.51.06,1.83.04,4.15.01,6.56-.02,2.4-.05,4.89-.01,7.04-.42,1.75-.09,4.19,0,7.67a17.4867,17.4867,0,0,0,0,7.92,12.8161,12.8161,0,0,0,.01,3.96c-.07,1.5-.05,2.88-.03,4.01.06,1.56-.02,2.64-.02,3.92s.01,2.52.04,3.69c.15,2.78.51,5.09.14,7.19a63.7362,63.7362,0,0,1-.14,6.41,46.636,46.636,0,0,0,0,5.31c-.03,1.74.25,3.47,0,4.31a6.7935,6.7935,0,0,0-.04,3.64c-1.5-.38-2.3-1.44-3.35-1.82-1.02-.17-1.63-1.2-3.03-1.89a2.12,2.12,0,0,0-.22-.1c.05,0,.15-.15.22-.23-.01-.61-.02-2.16,0-4.28a33.6284,33.6284,0,0,1-.15-5.49,27.9959,27.9959,0,0,1,.15-6.12c.58-2.9-.03-5.29-.07-7.55-.04-1.3-.08-2.63-.08-4.01a35.4516,35.4516,0,0,1,.15-4.31c-.11-2.96.11-6.08,0-8.64-.23-2.78.47-6.01,0-8.64.09-1.87.17-3.94.19-6.04a59.0226,59.0226,0,0,0-.19-6.15c-.11-1.94-.29-3.81-.29-5.6a9.2548,9.2548,0,0,1,.29-4.6,10.7123,10.7123,0,0,0-.07-3.85c-.47-.94.46-2.13.07-3.14-.52-1.93-.3-2.38,0-2.6.06-1.74.58-3.23.79-5.05a40.2618,40.2618,0,0,1,1.83-4.59,27.3137,27.3137,0,0,1,2.99-3.86c1.52-.89,1.84-2.87,3.87-3,1.4-.23,2.15-1.54,4.56-1.92a29.291,29.291,0,0,1,5.07-.69c-.44-.82,2.05.27,3.57,0a4.1941,4.1941,0,0,1,4.09,0c1.75.34,3.94-.31,5.3,0,2.41.2,3.42,1.01,5.35.01,1.69-.08,3.96-.11,5.87-.01,1.27.3,2.34-.19,3.37-.02,1.16.01,2.04.69,2.99.09,1.2.14,1.78-.46,2.97-.06,1.07,0,2.24.01,3.53-.01a58.3368,58.3368,0,0,0,8.87,0c3.09-.07,5.52-.02,8.69,0h18.55a29.1443,29.1443,0,0,0,7.14,0c1.25-.01,2.42.03,2.66.01a.01.01,0,0,1-.01-.01.0761.0761,0,0,0,.04.01h-.03c.62,1.14,1.19,2.09,1.74,3.03a14.6335,14.6335,0,0,0,1.6,2.99c0,.89,1.04,1.99,1.3,3.03a20.7848,20.7848,0,0,1,1.48,3.33c-.19,1.32.52,1.36,1.1,3.34a12.6072,12.6072,0,0,0,1.09,3.31c-.14.06-1.01.17-5.04,0-2.1-.03-3.2.03-5.43,0-.95.14-1.78-.6-3.2.05a6.729,6.729,0,0,0-3.39-.05,31.517,31.517,0,0,0-5.41-.19c-1.81.05-3.62.18-5.39.19-2.28-.42-3.53.38-5.47.14a23.713,23.713,0,0,0-4.67-.14,13.8234,13.8234,0,0,1-4.22-.08c-1.41-.34-2.45.18-3.31.08-1.49-.13-2.86-.43-2.94,0-.7-.17-2.39,0-2.46-1.02-.38-1.2-.76-1.41-1.01-2.46.22-.07.31-2.06.02-4.57.03-2.76.24-4.14.02-4.56-.38-.01-2.12-.11-3.62-.01-1.11.05-2.77.38-3.97-.02a23.2593,23.2593,0,0,1-4.81.02,40.5875,40.5875,0,0,0-5.42-.04c-2.03.24-3.41-.04-5.43.04a20.8588,20.8588,0,0,1-5.18.03,14.9005,14.9005,0,0,0-4.64-.03c-3.17.08-5.8.23-6.12,0-.66-.17-2.99.52-3.49.51a4.1241,4.1241,0,0,0-3,1.25,7.4264,7.4264,0,0,0-2.73,2.08c-.72.82-1.29,1.72-1.88,2.53A9.9,9.9,0,0,0,268.1728,155.2264Zm104.69,35.91c-.51,1.64-.58,2.03-.94,3.39-.54.79-.57,2.12-.93,3.24.24,1.35-.48,2.02-1.02,3.2a10.9606,10.9606,0,0,1-1.44,3.16,22.9554,22.9554,0,0,1-1.44,3.07c-.41,1.12-.93,1.29-1.58,2.99a32.1137,32.1137,0,0,0-4.27,0c-1.14.07-2.86-.45-4.85-.04a25.462,25.462,0,0,0-6.16.04c-2.34-.5-4.77-.14-7.14.03-2.52.04-5.16.06-7.92-.03-1.4.06-2.76.06-4.12.04a11.5047,11.5047,0,0,1-4.09-.04,37.5075,37.5075,0,0,0-4.12,0c-1.5.13-2.94-.49-4.08,0a24.3316,24.3316,0,0,0-4.28-.16c-1.32.06-2.53.16-3.65.13-1.16-.07-2.12.35-3.53.11a13.7623,13.7623,0,0,1-3.6-.08c-2.13.3-4.47-.1-6.45-.07-1.85.07-3.64-.19-4.57.07-2.88-.59-3.69.52-4.27,0a8.775,8.775,0,0,1-4.22-2.06c-.62-1.73-2.38-2.94-1.75-4.98-.26-.11-.01-4.84,0-4.97a6.1,6.1,0,0,1,1.75-4.98,9.341,9.341,0,0,1,4.22-2.06c-.14-.56,1.99-.07,3.63,0,1.39-.36,2.74.12,4.29.12a22.0494,22.0494,0,0,0,5.28-.12c2.48.32,3.94-.29,6.4-.1,1.66.55,4.89.36,7.12.1a66.83,66.83,0,0,1,7.58.05c2.6-.02,5.25-.05,7.93-.05h7.87a11.88,11.88,0,0,0,3.86,0c1.06-.36,2.09-.09,3.77,0,1.38.32,2.16-.71,3.54-.04,1.44.09,2.34.01,3.49.03,2.29.03,4.5.06,6.49.01,2.33-.01,4.31-.06,5.41-.06a13.3259,13.3259,0,0,1,4.16.06C371.3828,190.7164,373.1728,190.9964,372.8628,191.1363Zm1.85-13.23a27.4539,27.4539,0,0,1-.27,3.51c-.55,1.69-.12,2.31-.39,3.22,0,1.07-.7,2.48-.56,3.5-.08-.19-1.57.72-3.65,0-1.07-.27-3.06.39-4.27.01-2.17.3-3.72-.1-5.37-.01-1.02-.02-2.06-.01-3.12.02a9.7028,9.7028,0,0,1-3.26.07c-.89-.08-2.13.2-3.49.03-.98.04-2.09-.03-3.76-.12a41.9216,41.9216,0,0,1-7.68,0c-2.62.41-5.52.01-7.94,0-1.33,0-2.65-.02-3.97-.03s-2.63-.03-3.93-.04c-2.58-.36-4.73.16-7.72.07a57.8355,57.8355,0,0,0-6.78-.08c-2.63.48-4.99-.28-6.85.08a20.9531,20.9531,0,0,1-5.25.16c-1.49.2-3.44-.27-4.38-.16-2.18.66-4.29.44-3.66,0-1.44-.21-2.02.62-3.49.79a14.2542,14.2542,0,0,0-2.85,2.15c-.33.9-1.91,2.2-1.92,3.19-.22.91-1.06,2.91-.71,3.91.2.59-.36,4.59,0,4.97a10.5106,10.5106,0,0,0,.71,3.91,10.1788,10.1788,0,0,0,1.92,3.19c1.82,1.45,4.37,3.12,6.34,2.94-.15-.24,1.63.35,4.17,0,1.62-.15,3.27.16,4.73,0,1.99-.59,3.95-.01,6.04,0,1,.04,2.14.09,3.3.13s2.35.08,3.48.09c2.84-.02,5.07-.11,7.93-.22,1.74-.53,2.75.17,4.11.03,1.04-.19,2.96.13,4.01,0,1.6-.53,2.19.01,3.98.17,1.25,0,2.49-.06,3.94-.2,2.55.14,5.21.18,7.74.16,2.7-.15,5.44-.14,6.97-.16,2.19.06,3.83-.13,5.99.09a23.9741,23.9741,0,0,1,4.78-.09c2.52-.85,3.89.25,4.13.08-.71,1.58-2.39,3.08-2.86,4.24a45.8879,45.8879,0,0,1-3.18,4.1c-.49.56-.9.07-2.46,0-.79-.47-2.73.32-3.9.01-1.85-.18-3.15.05-5.04.02a12.3112,12.3112,0,0,0-5.88.01c-1.84.49-4.2-.06-6.56.07a54.2405,54.2405,0,0,0-6.53-.04c-1.08.01-2.19-.04-3.3-.11-.87-.15-1.99-.03-3.32-.17a20.5246,20.5246,0,0,0-3.24.01c-.98.28-2.07-.16-3.04.27-1.89.23-4.24-.16-5.62.19-1.49-.18-3.44.34-4.71-.21-2.73-.02-4.35-.13-5.4-.06-.24-.05.1,2.63-.01,3.03a18.5125,18.5125,0,0,0,6.01.04,41.093,41.093,0,0,0,5.32-.01,20.1873,20.1873,0,0,1,6.3.03c1.65.16,3.36-.23,5.42-.04,2.04-.08,3.79.24,5.36.03a12.3847,12.3847,0,0,0,5.57.21c2.28-.05,4.19-.08,5.37-.23,1.75.07,3.7.05,5.11-.01,1.72-.09,3.09-.01,4.64-.02,1.35.39,2.84-.06,4.02-.01,1.74-.04,2.29.12,3.22-.01-1.46,1.49-2.56,2.63-3.84,3.84a41.2381,41.2381,0,0,1-4.12,3.54c-3.19.28-5.57-.13-8.4-.11-2.34.16-5.35-.18-7.82.14-2.65.17-4.8.45-7.09-.04-2.16-.02-4.12-.03-5.87.05-3.93-.34-6.8.12-9.7,0a29.517,29.517,0,0,0-6.4-.03c-1.46.07-2.8-.06-3.09-.04-.1-.15-.59,3.04-.12,2.99a24.7659,24.7659,0,0,0,5.3.06c2.71.1,6.77.22,11.84.02a13.6539,13.6539,0,0,0,3.61.11,36.7458,36.7458,0,0,1,4.06-.11c1.42.05,2.69-.18,4.5-.14,1.47.04,3.19-.38,4.61.13a34.4175,34.4175,0,0,1,5.06.15c1.46-.19,3.53.22,5.47-.17a16.2727,16.2727,0,0,1-3.54,2.44,15.3914,15.3914,0,0,1-3.87,2.07,8.3719,8.3719,0,0,1-3.83,1.85c-1.36.28-2.97,1.5-4.11,1.77a34.3041,34.3041,0,0,1-4.22,1.57c-1.38.41-2.75.76-4.19,1.11-2.4.08-6.05,1.51-8.82,1.66-3.08.53-6.05.17-9.15.56a17.1868,17.1868,0,0,1-3.55-.08c-1.26-.32-2.13,0-3.51-.25-.96-.17-2.19-.31-3.42-.46s-2.47-.31-3.46-.54c-2.17-.35-4.4-1.29-6.65-1.62a43.818,43.818,0,0,1-4.75-1.53c-1.59-.66-3.34-1.43-4.76-1.99-.25-.04-.32-1.41,0-3.71a10.3212,10.3212,0,0,0,.06-4.62c-.03-1.84.01-3.34-.06-5.16-.4-2.25.32-3.89-.06-6.54.08-2.46.14-5.35.06-7.29v-7.88c.08-1.8.05-2.34,0-3.96a15.75,15.75,0,0,1,0-4.01c-.07-5.4-.36-10.2,0-15.85.36-4.94-.08-9.51,0-13.82.05-2.02.08-4.08.09-5.83.01-1.74-.17-3.36-.09-3.96a18.4941,18.4941,0,0,1,0-3.7,11.6122,11.6122,0,0,1,2.89-6.97c.85-.78,2.02-1.31,3.04-2.08.78-.42,2.4-1.29,3.93-.81-.37.52,2.16-.62,5.65,0a35.065,35.065,0,0,1,5.8,0c1.57.7,4.46-.36,6.64,0,2.02-.56,4.83.36,6.78.02,2.81-.19,3.95-.38,5.65-.02,3.84-.24,5.33.56,5.65,0,0-.11.31,6.84-.02,6.13.35,1.7.4,3.37,1.89,4.59,1.82,1.58,2.28,1.78,4.58,1.9.38-.33,2.2.07,5.12,0a20.021,20.021,0,0,0,5.61.08c2.73.31,4.35-.36,6.6-.08,1.28.27,2.43-.31,3.68-.03,1.26-.02,2.52-.02,3.6.03,2.06-.38,5.12.12,7.29,0,2.51.09,4.65.15,6.71.1a30.7015,30.7015,0,0,0,5.5-.1c3.09-.07,4.81-.28,5.11,0a22.1346,22.1346,0,0,1,1.02,4.09c.2,1.27.28,2.52.4,4.05.21.92.3,3.04.46,4.07-.1,1.48.05,2.5.02,4.33C374.9028,175.6263,375.3129,176.5365,374.7129,177.9064Z"/><path class="cls-3" d="M291.5471,176.9686c.6362-.1368-2.4077-.0252-5.3023,0-3.0627.0884-4.9411.55-5.3022,0-.2852.1146-.7393,2.954,0,3a7.865,7.865,0,0,0,5.3022,0c2.5767.0167,5.9417.22,5.3023,0C291.6582,180.011,292.0588,177.2815,291.5471,176.9686Z"/><path class="cls-3" d="M280.9426,174.3876c.0378.037.072-.0038.1023-.0938C280.9353,174.316,280.8894,174.3458,280.9426,174.3876Z"/><path class="cls-3" d="M280.9426,171.3876c-.0127.057.0569.084.1621.1C281.0656,171.34,281.0122,171.2879,280.9426,171.3876Z"/><path class="cls-3" d="M291.4519,171.4262c.0388-.0105.0832-.0189.0952-.0386A.0865.0865,0,0,0,291.4519,171.4262Z"/><path class="cls-3" d="M281.0449,174.2938a50.3065,50.3065,0,0,1,5.2.0938c1.9825-.1578,5.3633.8261,5.3023,0,.1538-.3885-.3457-2.6483-.0952-2.9614-.42.1127-2.3594-.2612-5.2071-.0386-2.6992-.1494-4.6142.182-5.14.1A8.882,8.882,0,0,1,281.0449,174.2938Z"/><path class="cls-3" d="M291.5471,165.8065c-.07-.3792-2.961-.4645-5.3023,0-1.708.1324-5.4968-.1434-5.3022,0a12.8656,12.8656,0,0,0,0,3c-.0225.5351,2.6252.7482,5.3022,0,2.2776.76,4.3787-.342,5.3023,0C291.9023,168.9353,292.0964,165.6338,291.5471,165.8065Z"/><path class="cls-3" d="M277.353,123.9064c1.91.73,1.46,1.69,3.69,1.53,1.96-.21,2.8-.31,3.68-1.53,1.61-.53,1.22-2.44,1.52-3.68.8-1.83-.13-2.99-1.52-3.68-.66-1.36-2.19-1.7-3.68-1.53a6.8014,6.8014,0,0,0-3.69,1.53c-1.15.19-1.35,1.55-1.52,3.68A11.5031,11.5031,0,0,0,277.353,123.9064Z"/></g></svg>